<svg width="1000" height="1000" xml:space="preserve" xmlns="http://www.w3.org/2000/svg"><defs><path id="a" d="M475.278 197.13h1021.089v234.272H475.278z"/><path id="b" d="M475.278 197.13h1021.089v234.272H475.278z"/><path id="c" d="M475.278 197.13h1021.089v234.272H475.278z"/><path id="d" d="M475.278 197.13h1021.089v234.272H475.278z"/><path id="e" d="M475.278 197.13h1021.089v234.272H475.278z"/><path id="f" d="M475.278 197.13h1091.959v225.1H475.278z"/><path id="g" d="M475.278 197.13h1021.089v234.272H475.278z"/><path id="h" d="M475.278 197.13h1021.089v234.272H475.278z"/><path id="i" d="M475.278 197.13h1021.089v234.272H475.278z"/><path id="j" d="M475.278 197.13h1021.089v234.272H475.278z"/></defs><g style="display:inline"><circle style="display:inline;fill:#000;fill-opacity:1;stroke:#cfd8dc;stroke-width:15.8695;stroke-linecap:square;stroke-linejoin:bevel;stroke-dasharray:none;stroke-opacity:1" cx="500" cy="500" r="492.065"/><g style="display:inline"><g aria-label="1011100110" transform="matrix(.84033 0 0 .84033 -144.414 -18.298)" style="font-size:96px;line-height:0;font-family:'Nimbus Mono PS';-inkscape-font-specification:'Nimbus Mono PS';letter-spacing:-5.84px;white-space:pre;shape-inside:url(#a);display:inline;fill:#183f3f;stroke-width:18.8976;stroke-linecap:square;stroke-linejoin:bevel"><path d="m506.67 148.17-18.433 5.76c-1.824.577-2.4 1.153-2.4 2.497 0 1.248 1.152 2.4 2.304 2.4.192 0 1.152-.192 1.536-.288l12-3.744v47.328h-12.864c-2.112 0-3.168.864-3.168 2.4 0 1.632 1.152 2.496 3.168 2.496h30.72c2.016 0 3.072-.864 3.072-2.496 0-1.536-1.056-2.4-3.072-2.4H506.67zM574.365 173.419c0-15.168-7.488-25.536-18.432-25.536-11.04 0-18.528 10.368-18.528 25.536v9.408c0 15.264 7.488 25.632 18.528 25.632 10.944 0 18.432-10.368 18.432-25.632zm-31.968.576c0-5.952 1.728-12.192 4.512-16.512 2.016-3.072 5.088-4.704 9.024-4.704 3.84 0 6.912 1.632 8.928 4.704 2.784 4.32 4.512 10.56 4.512 16.512v8.352c0 5.856-1.728 12.192-4.512 16.512-2.016 3.072-5.184 4.704-8.928 4.704-3.84 0-7.008-1.632-9.024-4.704-2.784-4.32-4.512-10.656-4.512-16.512zM610.19 148.17l-18.433 5.76c-1.824.577-2.4 1.153-2.4 2.497 0 1.248 1.152 2.4 2.304 2.4.192 0 1.152-.192 1.536-.288l12-3.744v47.328h-12.864c-2.112 0-3.168.864-3.168 2.4 0 1.632 1.152 2.496 3.168 2.496h30.72c2.016 0 3.072-.864 3.072-2.496 0-1.536-1.056-2.4-3.072-2.4H610.19zM661.95 148.17l-18.433 5.76c-1.824.577-2.4 1.153-2.4 2.497 0 1.248 1.152 2.4 2.304 2.4.192 0 1.152-.192 1.536-.288l12-3.744v47.328h-12.864c-2.112 0-3.168.864-3.168 2.4 0 1.632 1.152 2.496 3.168 2.496h30.72c2.016 0 3.072-.864 3.072-2.496 0-1.536-1.056-2.4-3.072-2.4H661.95zM713.71 148.17l-18.433 5.76c-1.824.577-2.4 1.153-2.4 2.497 0 1.248 1.152 2.4 2.304 2.4.192 0 1.152-.192 1.536-.288l12-3.744v47.328h-12.864c-2.112 0-3.168.864-3.168 2.4 0 1.632 1.152 2.496 3.168 2.496h30.72c2.016 0 3.072-.864 3.072-2.496 0-1.536-1.056-2.4-3.072-2.4H713.71zM781.406 173.419c0-15.168-7.488-25.536-18.432-25.536-11.04 0-18.528 10.368-18.528 25.536v9.408c0 15.264 7.488 25.632 18.528 25.632 10.944 0 18.432-10.368 18.432-25.632zm-31.968.576c0-5.952 1.728-12.192 4.512-16.512 2.016-3.072 5.088-4.704 9.024-4.704 3.84 0 6.912 1.632 8.928 4.704 2.784 4.32 4.512 10.56 4.512 16.512v8.352c0 5.856-1.728 12.192-4.512 16.512-2.016 3.072-5.184 4.704-8.928 4.704-3.84 0-7.008-1.632-9.024-4.704-2.784-4.32-4.512-10.656-4.512-16.512zM833.166 173.419c0-15.168-7.488-25.536-18.432-25.536-11.04 0-18.528 10.368-18.528 25.536v9.408c0 15.264 7.488 25.632 18.528 25.632 10.944 0 18.432-10.368 18.432-25.632zm-31.968.576c0-5.952 1.728-12.192 4.512-16.512 2.016-3.072 5.088-4.704 9.024-4.704 3.84 0 6.912 1.632 8.928 4.704 2.784 4.32 4.512 10.56 4.512 16.512v8.352c0 5.856-1.728 12.192-4.512 16.512-2.016 3.072-5.184 4.704-8.928 4.704-3.84 0-7.008-1.632-9.024-4.704-2.784-4.32-4.512-10.656-4.512-16.512zM868.99 148.17l-18.432 5.76c-1.824.577-2.4 1.153-2.4 2.497 0 1.248 1.152 2.4 2.304 2.4.192 0 1.152-.192 1.536-.288l12-3.744v47.328h-12.864c-2.112 0-3.168.864-3.168 2.4 0 1.632 1.152 2.496 3.168 2.496h30.72c2.016 0 3.072-.864 3.072-2.496 0-1.536-1.056-2.4-3.072-2.4H868.99zM920.75 148.17l-18.432 5.76c-1.824.577-2.4 1.153-2.4 2.497 0 1.248 1.152 2.4 2.304 2.4.192 0 1.152-.192 1.536-.288l12-3.744v47.328h-12.864c-2.112 0-3.168.864-3.168 2.4 0 1.632 1.152 2.496 3.168 2.496h30.72c2.016 0 3.072-.864 3.072-2.496 0-1.536-1.056-2.4-3.072-2.4H920.75zM988.446 173.419c0-15.168-7.488-25.536-18.432-25.536-11.04 0-18.528 10.368-18.528 25.536v9.408c0 15.264 7.488 25.632 18.528 25.632 10.944 0 18.432-10.368 18.432-25.632zm-31.968.576c0-5.952 1.728-12.192 4.512-16.512 2.016-3.072 5.088-4.704 9.024-4.704 3.84 0 6.912 1.632 8.928 4.704 2.784 4.32 4.512 10.56 4.512 16.512v8.352c0 5.856-1.728 12.192-4.512 16.512-2.016 3.072-5.184 4.704-8.928 4.704-3.84 0-7.008-1.632-9.024-4.704-2.784-4.32-4.512-10.656-4.512-16.512z"/></g><g aria-label="1110100111000" transform="matrix(.84033 0 0 .84033 -187.21 61.924)" style="font-size:96px;line-height:0;font-family:'Nimbus Mono PS';-inkscape-font-specification:'Nimbus Mono PS';letter-spacing:-5.84px;white-space:pre;shape-inside:url(#b);display:inline;fill:#183f3f;stroke-width:18.8976;stroke-linecap:square;stroke-linejoin:bevel"><path d="m506.67 148.17-18.433 5.76c-1.824.577-2.4 1.153-2.4 2.497 0 1.248 1.152 2.4 2.304 2.4.192 0 1.152-.192 1.536-.288l12-3.744v47.328h-12.864c-2.112 0-3.168.864-3.168 2.4 0 1.632 1.152 2.496 3.168 2.496h30.72c2.016 0 3.072-.864 3.072-2.496 0-1.536-1.056-2.4-3.072-2.4H506.67zM558.43 148.17l-18.433 5.76c-1.824.577-2.4 1.153-2.4 2.497 0 1.248 1.152 2.4 2.304 2.4.192 0 1.152-.192 1.536-.288l12-3.744v47.328h-12.864c-2.112 0-3.168.864-3.168 2.4 0 1.632 1.152 2.496 3.168 2.496h30.72c2.016 0 3.072-.864 3.072-2.496 0-1.536-1.056-2.4-3.072-2.4H558.43zM610.19 148.17l-18.433 5.76c-1.824.577-2.4 1.153-2.4 2.497 0 1.248 1.152 2.4 2.304 2.4.192 0 1.152-.192 1.536-.288l12-3.744v47.328h-12.864c-2.112 0-3.168.864-3.168 2.4 0 1.632 1.152 2.496 3.168 2.496h30.72c2.016 0 3.072-.864 3.072-2.496 0-1.536-1.056-2.4-3.072-2.4H610.19zM677.885 173.419c0-15.168-7.488-25.536-18.432-25.536-11.04 0-18.528 10.368-18.528 25.536v9.408c0 15.264 7.488 25.632 18.528 25.632 10.944 0 18.432-10.368 18.432-25.632zm-31.968.576c0-5.952 1.728-12.192 4.512-16.512 2.016-3.072 5.088-4.704 9.024-4.704 3.84 0 6.912 1.632 8.928 4.704 2.784 4.32 4.512 10.56 4.512 16.512v8.352c0 5.856-1.728 12.192-4.512 16.512-2.016 3.072-5.184 4.704-8.928 4.704-3.84 0-7.008-1.632-9.024-4.704-2.784-4.32-4.512-10.656-4.512-16.512zM713.71 148.17l-18.433 5.76c-1.824.577-2.4 1.153-2.4 2.497 0 1.248 1.152 2.4 2.304 2.4.192 0 1.152-.192 1.536-.288l12-3.744v47.328h-12.864c-2.112 0-3.168.864-3.168 2.4 0 1.632 1.152 2.496 3.168 2.496h30.72c2.016 0 3.072-.864 3.072-2.496 0-1.536-1.056-2.4-3.072-2.4H713.71zM781.406 173.419c0-15.168-7.488-25.536-18.432-25.536-11.04 0-18.528 10.368-18.528 25.536v9.408c0 15.264 7.488 25.632 18.528 25.632 10.944 0 18.432-10.368 18.432-25.632zm-31.968.576c0-5.952 1.728-12.192 4.512-16.512 2.016-3.072 5.088-4.704 9.024-4.704 3.84 0 6.912 1.632 8.928 4.704 2.784 4.32 4.512 10.56 4.512 16.512v8.352c0 5.856-1.728 12.192-4.512 16.512-2.016 3.072-5.184 4.704-8.928 4.704-3.84 0-7.008-1.632-9.024-4.704-2.784-4.32-4.512-10.656-4.512-16.512zM833.166 173.419c0-15.168-7.488-25.536-18.432-25.536-11.04 0-18.528 10.368-18.528 25.536v9.408c0 15.264 7.488 25.632 18.528 25.632 10.944 0 18.432-10.368 18.432-25.632zm-31.968.576c0-5.952 1.728-12.192 4.512-16.512 2.016-3.072 5.088-4.704 9.024-4.704 3.84 0 6.912 1.632 8.928 4.704 2.784 4.32 4.512 10.56 4.512 16.512v8.352c0 5.856-1.728 12.192-4.512 16.512-2.016 3.072-5.184 4.704-8.928 4.704-3.84 0-7.008-1.632-9.024-4.704-2.784-4.32-4.512-10.656-4.512-16.512zM868.99 148.17l-18.432 5.76c-1.824.577-2.4 1.153-2.4 2.497 0 1.248 1.152 2.4 2.304 2.4.192 0 1.152-.192 1.536-.288l12-3.744v47.328h-12.864c-2.112 0-3.168.864-3.168 2.4 0 1.632 1.152 2.496 3.168 2.496h30.72c2.016 0 3.072-.864 3.072-2.496 0-1.536-1.056-2.4-3.072-2.4H868.99zM920.75 148.17l-18.432 5.76c-1.824.577-2.4 1.153-2.4 2.497 0 1.248 1.152 2.4 2.304 2.4.192 0 1.152-.192 1.536-.288l12-3.744v47.328h-12.864c-2.112 0-3.168.864-3.168 2.4 0 1.632 1.152 2.496 3.168 2.496h30.72c2.016 0 3.072-.864 3.072-2.496 0-1.536-1.056-2.4-3.072-2.4H920.75zM972.51 148.17l-18.432 5.76c-1.824.577-2.4 1.153-2.4 2.497 0 1.248 1.152 2.4 2.304 2.4.192 0 1.152-.192 1.536-.288l12-3.744v47.328h-12.864c-2.112 0-3.168.864-3.168 2.4 0 1.632 1.152 2.496 3.168 2.496h30.72c2.016 0 3.072-.864 3.072-2.496 0-1.536-1.056-2.4-3.072-2.4H972.51zM1040.206 173.419c0-15.168-7.488-25.536-18.432-25.536-11.04 0-18.528 10.368-18.528 25.536v9.408c0 15.264 7.488 25.632 18.528 25.632 10.944 0 18.432-10.368 18.432-25.632zm-31.968.576c0-5.952 1.728-12.192 4.512-16.512 2.016-3.072 5.088-4.704 9.024-4.704 3.84 0 6.912 1.632 8.928 4.704 2.784 4.32 4.512 10.56 4.512 16.512v8.352c0 5.856-1.728 12.192-4.512 16.512-2.016 3.072-5.184 4.704-8.928 4.704-3.84 0-7.008-1.632-9.024-4.704-2.784-4.32-4.512-10.656-4.512-16.512zM1091.966 173.419c0-15.168-7.488-25.536-18.432-25.536-11.04 0-18.528 10.368-18.528 25.536v9.408c0 15.264 7.488 25.632 18.528 25.632 10.944 0 18.432-10.368 18.432-25.632zm-31.968.576c0-5.952 1.728-12.192 4.512-16.512 2.016-3.072 5.088-4.704 9.024-4.704 3.84 0 6.912 1.632 8.928 4.704 2.784 4.32 4.512 10.56 4.512 16.512v8.352c0 5.856-1.728 12.192-4.512 16.512-2.016 3.072-5.184 4.704-8.928 4.704-3.84 0-7.008-1.632-9.024-4.704-2.784-4.32-4.512-10.656-4.512-16.512zM1143.726 173.419c0-15.168-7.488-25.536-18.432-25.536-11.04 0-18.528 10.368-18.528 25.536v9.408c0 15.264 7.488 25.632 18.528 25.632 10.944 0 18.432-10.368 18.432-25.632zm-31.968.576c0-5.952 1.728-12.192 4.512-16.512 2.016-3.072 5.088-4.704 9.024-4.704 3.84 0 6.912 1.632 8.928 4.704 2.784 4.32 4.512 10.56 4.512 16.512v8.352c0 5.856-1.728 12.192-4.512 16.512-2.016 3.072-5.184 4.704-8.928 4.704-3.84 0-7.008-1.632-9.024-4.704-2.784-4.32-4.512-10.656-4.512-16.512z"/></g><g aria-label="10101101100011010" transform="matrix(.84033 0 0 .84033 -294.707 142.145)" style="font-size:96px;line-height:0;font-family:'Nimbus Mono PS';-inkscape-font-specification:'Nimbus Mono PS';letter-spacing:-5.84px;white-space:pre;shape-inside:url(#c);display:inline;fill:#183f3f;stroke-width:18.8976;stroke-linecap:square;stroke-linejoin:bevel"><path d="m506.67 148.17-18.433 5.76c-1.824.577-2.4 1.153-2.4 2.497 0 1.248 1.152 2.4 2.304 2.4.192 0 1.152-.192 1.536-.288l12-3.744v47.328h-12.864c-2.112 0-3.168.864-3.168 2.4 0 1.632 1.152 2.496 3.168 2.496h30.72c2.016 0 3.072-.864 3.072-2.496 0-1.536-1.056-2.4-3.072-2.4H506.67zM574.365 173.419c0-15.168-7.488-25.536-18.432-25.536-11.04 0-18.528 10.368-18.528 25.536v9.408c0 15.264 7.488 25.632 18.528 25.632 10.944 0 18.432-10.368 18.432-25.632zm-31.968.576c0-5.952 1.728-12.192 4.512-16.512 2.016-3.072 5.088-4.704 9.024-4.704 3.84 0 6.912 1.632 8.928 4.704 2.784 4.32 4.512 10.56 4.512 16.512v8.352c0 5.856-1.728 12.192-4.512 16.512-2.016 3.072-5.184 4.704-8.928 4.704-3.84 0-7.008-1.632-9.024-4.704-2.784-4.32-4.512-10.656-4.512-16.512zM610.19 148.17l-18.433 5.76c-1.824.577-2.4 1.153-2.4 2.497 0 1.248 1.152 2.4 2.304 2.4.192 0 1.152-.192 1.536-.288l12-3.744v47.328h-12.864c-2.112 0-3.168.864-3.168 2.4 0 1.632 1.152 2.496 3.168 2.496h30.72c2.016 0 3.072-.864 3.072-2.496 0-1.536-1.056-2.4-3.072-2.4H610.19zM677.885 173.419c0-15.168-7.488-25.536-18.432-25.536-11.04 0-18.528 10.368-18.528 25.536v9.408c0 15.264 7.488 25.632 18.528 25.632 10.944 0 18.432-10.368 18.432-25.632zm-31.968.576c0-5.952 1.728-12.192 4.512-16.512 2.016-3.072 5.088-4.704 9.024-4.704 3.84 0 6.912 1.632 8.928 4.704 2.784 4.32 4.512 10.56 4.512 16.512v8.352c0 5.856-1.728 12.192-4.512 16.512-2.016 3.072-5.184 4.704-8.928 4.704-3.84 0-7.008-1.632-9.024-4.704-2.784-4.32-4.512-10.656-4.512-16.512zM713.71 148.17l-18.433 5.76c-1.824.577-2.4 1.153-2.4 2.497 0 1.248 1.152 2.4 2.304 2.4.192 0 1.152-.192 1.536-.288l12-3.744v47.328h-12.864c-2.112 0-3.168.864-3.168 2.4 0 1.632 1.152 2.496 3.168 2.496h30.72c2.016 0 3.072-.864 3.072-2.496 0-1.536-1.056-2.4-3.072-2.4H713.71zM765.47 148.17l-18.432 5.76c-1.824.577-2.4 1.153-2.4 2.497 0 1.248 1.152 2.4 2.304 2.4.192 0 1.152-.192 1.536-.288l12-3.744v47.328h-12.864c-2.112 0-3.168.864-3.168 2.4 0 1.632 1.152 2.496 3.168 2.496h30.72c2.016 0 3.072-.864 3.072-2.496 0-1.536-1.056-2.4-3.072-2.4H765.47zM833.166 173.419c0-15.168-7.488-25.536-18.432-25.536-11.04 0-18.528 10.368-18.528 25.536v9.408c0 15.264 7.488 25.632 18.528 25.632 10.944 0 18.432-10.368 18.432-25.632zm-31.968.576c0-5.952 1.728-12.192 4.512-16.512 2.016-3.072 5.088-4.704 9.024-4.704 3.84 0 6.912 1.632 8.928 4.704 2.784 4.32 4.512 10.56 4.512 16.512v8.352c0 5.856-1.728 12.192-4.512 16.512-2.016 3.072-5.184 4.704-8.928 4.704-3.84 0-7.008-1.632-9.024-4.704-2.784-4.32-4.512-10.656-4.512-16.512zM868.99 148.17l-18.432 5.76c-1.824.577-2.4 1.153-2.4 2.497 0 1.248 1.152 2.4 2.304 2.4.192 0 1.152-.192 1.536-.288l12-3.744v47.328h-12.864c-2.112 0-3.168.864-3.168 2.4 0 1.632 1.152 2.496 3.168 2.496h30.72c2.016 0 3.072-.864 3.072-2.496 0-1.536-1.056-2.4-3.072-2.4H868.99zM920.75 148.17l-18.432 5.76c-1.824.577-2.4 1.153-2.4 2.497 0 1.248 1.152 2.4 2.304 2.4.192 0 1.152-.192 1.536-.288l12-3.744v47.328h-12.864c-2.112 0-3.168.864-3.168 2.4 0 1.632 1.152 2.496 3.168 2.496h30.72c2.016 0 3.072-.864 3.072-2.496 0-1.536-1.056-2.4-3.072-2.4H920.75zM988.446 173.419c0-15.168-7.488-25.536-18.432-25.536-11.04 0-18.528 10.368-18.528 25.536v9.408c0 15.264 7.488 25.632 18.528 25.632 10.944 0 18.432-10.368 18.432-25.632zm-31.968.576c0-5.952 1.728-12.192 4.512-16.512 2.016-3.072 5.088-4.704 9.024-4.704 3.84 0 6.912 1.632 8.928 4.704 2.784 4.32 4.512 10.56 4.512 16.512v8.352c0 5.856-1.728 12.192-4.512 16.512-2.016 3.072-5.184 4.704-8.928 4.704-3.84 0-7.008-1.632-9.024-4.704-2.784-4.32-4.512-10.656-4.512-16.512zM1040.206 173.419c0-15.168-7.488-25.536-18.432-25.536-11.04 0-18.528 10.368-18.528 25.536v9.408c0 15.264 7.488 25.632 18.528 25.632 10.944 0 18.432-10.368 18.432-25.632zm-31.968.576c0-5.952 1.728-12.192 4.512-16.512 2.016-3.072 5.088-4.704 9.024-4.704 3.84 0 6.912 1.632 8.928 4.704 2.784 4.32 4.512 10.56 4.512 16.512v8.352c0 5.856-1.728 12.192-4.512 16.512-2.016 3.072-5.184 4.704-8.928 4.704-3.84 0-7.008-1.632-9.024-4.704-2.784-4.32-4.512-10.656-4.512-16.512zM1091.966 173.419c0-15.168-7.488-25.536-18.432-25.536-11.04 0-18.528 10.368-18.528 25.536v9.408c0 15.264 7.488 25.632 18.528 25.632 10.944 0 18.432-10.368 18.432-25.632zm-31.968.576c0-5.952 1.728-12.192 4.512-16.512 2.016-3.072 5.088-4.704 9.024-4.704 3.84 0 6.912 1.632 8.928 4.704 2.784 4.32 4.512 10.56 4.512 16.512v8.352c0 5.856-1.728 12.192-4.512 16.512-2.016 3.072-5.184 4.704-8.928 4.704-3.84 0-7.008-1.632-9.024-4.704-2.784-4.32-4.512-10.656-4.512-16.512zM1127.79 148.17l-18.432 5.76c-1.824.577-2.4 1.153-2.4 2.497 0 1.248 1.152 2.4 2.304 2.4.192 0 1.152-.192 1.536-.288l12-3.744v47.328h-12.864c-2.112 0-3.168.864-3.168 2.4 0 1.632 1.152 2.496 3.168 2.496h30.72c2.016 0 3.072-.864 3.072-2.496 0-1.536-1.056-2.4-3.072-2.4h-12.864zM1179.55 148.17l-18.432 5.76c-1.824.577-2.4 1.153-2.4 2.497 0 1.248 1.152 2.4 2.304 2.4.192 0 1.152-.192 1.536-.288l12-3.744v47.328h-12.864c-2.112 0-3.168.864-3.168 2.4 0 1.632 1.152 2.496 3.168 2.496h30.72c2.016 0 3.072-.864 3.072-2.496 0-1.536-1.056-2.4-3.072-2.4h-12.864zM1247.246 173.419c0-15.168-7.488-25.536-18.432-25.536-11.04 0-18.528 10.368-18.528 25.536v9.408c0 15.264 7.488 25.632 18.528 25.632 10.944 0 18.432-10.368 18.432-25.632zm-31.968.576c0-5.952 1.728-12.192 4.512-16.512 2.016-3.072 5.088-4.704 9.024-4.704 3.84 0 6.912 1.632 8.928 4.704 2.784 4.32 4.512 10.56 4.512 16.512v8.352c0 5.856-1.728 12.192-4.512 16.512-2.016 3.072-5.184 4.704-8.928 4.704-3.84 0-7.008-1.632-9.024-4.704-2.784-4.32-4.512-10.656-4.512-16.512zM1283.07 148.17l-18.432 5.76c-1.824.577-2.4 1.153-2.4 2.497 0 1.248 1.152 2.4 2.304 2.4.192 0 1.152-.192 1.536-.288l12-3.744v47.328h-12.864c-2.112 0-3.168.864-3.168 2.4 0 1.632 1.152 2.496 3.168 2.496h30.72c2.016 0 3.072-.864 3.072-2.496 0-1.536-1.056-2.4-3.072-2.4h-12.864zM1350.766 173.419c0-15.168-7.488-25.536-18.432-25.536-11.04 0-18.528 10.368-18.528 25.536v9.408c0 15.264 7.488 25.632 18.528 25.632 10.944 0 18.432-10.368 18.432-25.632zm-31.968.576c0-5.952 1.728-12.192 4.512-16.512 2.016-3.072 5.088-4.704 9.024-4.704 3.84 0 6.912 1.632 8.928 4.704 2.784 4.32 4.512 10.56 4.512 16.512v8.352c0 5.856-1.728 12.192-4.512 16.512-2.016 3.072-5.184 4.704-8.928 4.704-3.84 0-7.008-1.632-9.024-4.704-2.784-4.32-4.512-10.656-4.512-16.512z"/></g><g aria-label="1000011000000010000" transform="matrix(.84033 0 0 .84033 -338.366 222.366)" style="font-size:96px;line-height:0;font-family:'Nimbus Mono PS';-inkscape-font-specification:'Nimbus Mono PS';letter-spacing:-5.84px;white-space:pre;shape-inside:url(#d);display:inline;fill:#183f3f;stroke-width:18.8976;stroke-linecap:square;stroke-linejoin:bevel"><path d="m506.67 148.17-18.433 5.76c-1.824.577-2.4 1.153-2.4 2.497 0 1.248 1.152 2.4 2.304 2.4.192 0 1.152-.192 1.536-.288l12-3.744v47.328h-12.864c-2.112 0-3.168.864-3.168 2.4 0 1.632 1.152 2.496 3.168 2.496h30.72c2.016 0 3.072-.864 3.072-2.496 0-1.536-1.056-2.4-3.072-2.4H506.67zM574.365 173.419c0-15.168-7.488-25.536-18.432-25.536-11.04 0-18.528 10.368-18.528 25.536v9.408c0 15.264 7.488 25.632 18.528 25.632 10.944 0 18.432-10.368 18.432-25.632zm-31.968.576c0-5.952 1.728-12.192 4.512-16.512 2.016-3.072 5.088-4.704 9.024-4.704 3.84 0 6.912 1.632 8.928 4.704 2.784 4.32 4.512 10.56 4.512 16.512v8.352c0 5.856-1.728 12.192-4.512 16.512-2.016 3.072-5.184 4.704-8.928 4.704-3.84 0-7.008-1.632-9.024-4.704-2.784-4.32-4.512-10.656-4.512-16.512zM626.125 173.419c0-15.168-7.488-25.536-18.432-25.536-11.04 0-18.528 10.368-18.528 25.536v9.408c0 15.264 7.488 25.632 18.528 25.632 10.944 0 18.432-10.368 18.432-25.632zm-31.968.576c0-5.952 1.728-12.192 4.512-16.512 2.016-3.072 5.088-4.704 9.024-4.704 3.84 0 6.912 1.632 8.928 4.704 2.784 4.32 4.512 10.56 4.512 16.512v8.352c0 5.856-1.728 12.192-4.512 16.512-2.016 3.072-5.184 4.704-8.928 4.704-3.84 0-7.008-1.632-9.024-4.704-2.784-4.32-4.512-10.656-4.512-16.512zM677.885 173.419c0-15.168-7.488-25.536-18.432-25.536-11.04 0-18.528 10.368-18.528 25.536v9.408c0 15.264 7.488 25.632 18.528 25.632 10.944 0 18.432-10.368 18.432-25.632zm-31.968.576c0-5.952 1.728-12.192 4.512-16.512 2.016-3.072 5.088-4.704 9.024-4.704 3.84 0 6.912 1.632 8.928 4.704 2.784 4.32 4.512 10.56 4.512 16.512v8.352c0 5.856-1.728 12.192-4.512 16.512-2.016 3.072-5.184 4.704-8.928 4.704-3.84 0-7.008-1.632-9.024-4.704-2.784-4.32-4.512-10.656-4.512-16.512zM729.645 173.419c0-15.168-7.488-25.536-18.432-25.536-11.04 0-18.528 10.368-18.528 25.536v9.408c0 15.264 7.488 25.632 18.528 25.632 10.944 0 18.432-10.368 18.432-25.632zm-31.968.576c0-5.952 1.728-12.192 4.512-16.512 2.016-3.072 5.088-4.704 9.024-4.704 3.84 0 6.912 1.632 8.928 4.704 2.784 4.32 4.512 10.56 4.512 16.512v8.352c0 5.856-1.728 12.192-4.512 16.512-2.016 3.072-5.184 4.704-8.928 4.704-3.84 0-7.008-1.632-9.024-4.704-2.784-4.32-4.512-10.656-4.512-16.512zM765.47 148.17l-18.432 5.76c-1.824.577-2.4 1.153-2.4 2.497 0 1.248 1.152 2.4 2.304 2.4.192 0 1.152-.192 1.536-.288l12-3.744v47.328h-12.864c-2.112 0-3.168.864-3.168 2.4 0 1.632 1.152 2.496 3.168 2.496h30.72c2.016 0 3.072-.864 3.072-2.496 0-1.536-1.056-2.4-3.072-2.4H765.47zM817.23 148.17l-18.432 5.76c-1.824.577-2.4 1.153-2.4 2.497 0 1.248 1.152 2.4 2.304 2.4.192 0 1.152-.192 1.536-.288l12-3.744v47.328h-12.864c-2.112 0-3.168.864-3.168 2.4 0 1.632 1.152 2.496 3.168 2.496h30.72c2.016 0 3.072-.864 3.072-2.496 0-1.536-1.056-2.4-3.072-2.4H817.23zM884.926 173.419c0-15.168-7.488-25.536-18.432-25.536-11.04 0-18.528 10.368-18.528 25.536v9.408c0 15.264 7.488 25.632 18.528 25.632 10.944 0 18.432-10.368 18.432-25.632zm-31.968.576c0-5.952 1.728-12.192 4.512-16.512 2.016-3.072 5.088-4.704 9.024-4.704 3.84 0 6.912 1.632 8.928 4.704 2.784 4.32 4.512 10.56 4.512 16.512v8.352c0 5.856-1.728 12.192-4.512 16.512-2.016 3.072-5.184 4.704-8.928 4.704-3.84 0-7.008-1.632-9.024-4.704-2.784-4.32-4.512-10.656-4.512-16.512zM936.686 173.419c0-15.168-7.488-25.536-18.432-25.536-11.04 0-18.528 10.368-18.528 25.536v9.408c0 15.264 7.488 25.632 18.528 25.632 10.944 0 18.432-10.368 18.432-25.632zm-31.968.576c0-5.952 1.728-12.192 4.512-16.512 2.016-3.072 5.088-4.704 9.024-4.704 3.84 0 6.912 1.632 8.928 4.704 2.784 4.32 4.512 10.56 4.512 16.512v8.352c0 5.856-1.728 12.192-4.512 16.512-2.016 3.072-5.184 4.704-8.928 4.704-3.84 0-7.008-1.632-9.024-4.704-2.784-4.32-4.512-10.656-4.512-16.512zM988.446 173.419c0-15.168-7.488-25.536-18.432-25.536-11.04 0-18.528 10.368-18.528 25.536v9.408c0 15.264 7.488 25.632 18.528 25.632 10.944 0 18.432-10.368 18.432-25.632zm-31.968.576c0-5.952 1.728-12.192 4.512-16.512 2.016-3.072 5.088-4.704 9.024-4.704 3.84 0 6.912 1.632 8.928 4.704 2.784 4.32 4.512 10.56 4.512 16.512v8.352c0 5.856-1.728 12.192-4.512 16.512-2.016 3.072-5.184 4.704-8.928 4.704-3.84 0-7.008-1.632-9.024-4.704-2.784-4.32-4.512-10.656-4.512-16.512zM1040.206 173.419c0-15.168-7.488-25.536-18.432-25.536-11.04 0-18.528 10.368-18.528 25.536v9.408c0 15.264 7.488 25.632 18.528 25.632 10.944 0 18.432-10.368 18.432-25.632zm-31.968.576c0-5.952 1.728-12.192 4.512-16.512 2.016-3.072 5.088-4.704 9.024-4.704 3.84 0 6.912 1.632 8.928 4.704 2.784 4.32 4.512 10.56 4.512 16.512v8.352c0 5.856-1.728 12.192-4.512 16.512-2.016 3.072-5.184 4.704-8.928 4.704-3.84 0-7.008-1.632-9.024-4.704-2.784-4.32-4.512-10.656-4.512-16.512zM1091.966 173.419c0-15.168-7.488-25.536-18.432-25.536-11.04 0-18.528 10.368-18.528 25.536v9.408c0 15.264 7.488 25.632 18.528 25.632 10.944 0 18.432-10.368 18.432-25.632zm-31.968.576c0-5.952 1.728-12.192 4.512-16.512 2.016-3.072 5.088-4.704 9.024-4.704 3.84 0 6.912 1.632 8.928 4.704 2.784 4.32 4.512 10.56 4.512 16.512v8.352c0 5.856-1.728 12.192-4.512 16.512-2.016 3.072-5.184 4.704-8.928 4.704-3.84 0-7.008-1.632-9.024-4.704-2.784-4.32-4.512-10.656-4.512-16.512zM1143.726 173.419c0-15.168-7.488-25.536-18.432-25.536-11.04 0-18.528 10.368-18.528 25.536v9.408c0 15.264 7.488 25.632 18.528 25.632 10.944 0 18.432-10.368 18.432-25.632zm-31.968.576c0-5.952 1.728-12.192 4.512-16.512 2.016-3.072 5.088-4.704 9.024-4.704 3.84 0 6.912 1.632 8.928 4.704 2.784 4.32 4.512 10.56 4.512 16.512v8.352c0 5.856-1.728 12.192-4.512 16.512-2.016 3.072-5.184 4.704-8.928 4.704-3.84 0-7.008-1.632-9.024-4.704-2.784-4.32-4.512-10.656-4.512-16.512zM1195.486 173.419c0-15.168-7.488-25.536-18.432-25.536-11.04 0-18.528 10.368-18.528 25.536v9.408c0 15.264 7.488 25.632 18.528 25.632 10.944 0 18.432-10.368 18.432-25.632zm-31.968.576c0-5.952 1.728-12.192 4.512-16.512 2.016-3.072 5.088-4.704 9.024-4.704 3.84 0 6.912 1.632 8.928 4.704 2.784 4.32 4.512 10.56 4.512 16.512v8.352c0 5.856-1.728 12.192-4.512 16.512-2.016 3.072-5.184 4.704-8.928 4.704-3.84 0-7.008-1.632-9.024-4.704-2.784-4.32-4.512-10.656-4.512-16.512zM1231.31 148.17l-18.432 5.76c-1.824.577-2.4 1.153-2.4 2.497 0 1.248 1.152 2.4 2.304 2.4.192 0 1.152-.192 1.536-.288l12-3.744v47.328h-12.864c-2.112 0-3.168.864-3.168 2.4 0 1.632 1.152 2.496 3.168 2.496h30.72c2.016 0 3.072-.864 3.072-2.496 0-1.536-1.056-2.4-3.072-2.4h-12.864zM1299.006 173.419c0-15.168-7.488-25.536-18.432-25.536-11.04 0-18.528 10.368-18.528 25.536v9.408c0 15.264 7.488 25.632 18.528 25.632 10.944 0 18.432-10.368 18.432-25.632zm-31.968.576c0-5.952 1.728-12.192 4.512-16.512 2.016-3.072 5.088-4.704 9.024-4.704 3.84 0 6.912 1.632 8.928 4.704 2.784 4.32 4.512 10.56 4.512 16.512v8.352c0 5.856-1.728 12.192-4.512 16.512-2.016 3.072-5.184 4.704-8.928 4.704-3.84 0-7.008-1.632-9.024-4.704-2.784-4.32-4.512-10.656-4.512-16.512zM1350.766 173.419c0-15.168-7.488-25.536-18.432-25.536-11.04 0-18.528 10.368-18.528 25.536v9.408c0 15.264 7.488 25.632 18.528 25.632 10.944 0 18.432-10.368 18.432-25.632zm-31.968.576c0-5.952 1.728-12.192 4.512-16.512 2.016-3.072 5.088-4.704 9.024-4.704 3.84 0 6.912 1.632 8.928 4.704 2.784 4.32 4.512 10.56 4.512 16.512v8.352c0 5.856-1.728 12.192-4.512 16.512-2.016 3.072-5.184 4.704-8.928 4.704-3.84 0-7.008-1.632-9.024-4.704-2.784-4.32-4.512-10.656-4.512-16.512zM1402.526 173.419c0-15.168-7.488-25.536-18.432-25.536-11.04 0-18.528 10.368-18.528 25.536v9.408c0 15.264 7.488 25.632 18.528 25.632 10.944 0 18.432-10.368 18.432-25.632zm-31.968.576c0-5.952 1.728-12.192 4.512-16.512 2.016-3.072 5.088-4.704 9.024-4.704 3.84 0 6.912 1.632 8.928 4.704 2.784 4.32 4.512 10.56 4.512 16.512v8.352c0 5.856-1.728 12.192-4.512 16.512-2.016 3.072-5.184 4.704-8.928 4.704-3.84 0-7.008-1.632-9.024-4.704-2.784-4.32-4.512-10.656-4.512-16.512zM1438.35 148.17l-18.432 5.76c-1.824.577-2.4 1.153-2.4 2.497 0 1.248 1.152 2.4 2.304 2.4.192 0 1.152-.192 1.536-.288l12-3.744v47.328h-12.864c-2.112 0-3.168.864-3.168 2.4 0 1.632 1.152 2.496 3.168 2.496h30.72c2.016 0 3.072-.864 3.072-2.496 0-1.536-1.056-2.4-3.072-2.4h-12.864z"/></g><g aria-label="1011010110000101100" transform="matrix(.84033 0 0 .84033 -315.868 302.46)" style="font-size:96px;line-height:0;font-family:'Nimbus Mono PS';-inkscape-font-specification:'Nimbus Mono PS';letter-spacing:-5.84px;white-space:pre;shape-inside:url(#e);display:inline;fill:#183f3f;stroke-width:18.8976;stroke-linecap:square;stroke-linejoin:bevel"><path d="m506.67 148.17-18.433 5.76c-1.824.577-2.4 1.153-2.4 2.497 0 1.248 1.152 2.4 2.304 2.4.192 0 1.152-.192 1.536-.288l12-3.744v47.328h-12.864c-2.112 0-3.168.864-3.168 2.4 0 1.632 1.152 2.496 3.168 2.496h30.72c2.016 0 3.072-.864 3.072-2.496 0-1.536-1.056-2.4-3.072-2.4H506.67zM574.365 173.419c0-15.168-7.488-25.536-18.432-25.536-11.04 0-18.528 10.368-18.528 25.536v9.408c0 15.264 7.488 25.632 18.528 25.632 10.944 0 18.432-10.368 18.432-25.632zm-31.968.576c0-5.952 1.728-12.192 4.512-16.512 2.016-3.072 5.088-4.704 9.024-4.704 3.84 0 6.912 1.632 8.928 4.704 2.784 4.32 4.512 10.56 4.512 16.512v8.352c0 5.856-1.728 12.192-4.512 16.512-2.016 3.072-5.184 4.704-8.928 4.704-3.84 0-7.008-1.632-9.024-4.704-2.784-4.32-4.512-10.656-4.512-16.512zM610.19 148.17l-18.433 5.76c-1.824.577-2.4 1.153-2.4 2.497 0 1.248 1.152 2.4 2.304 2.4.192 0 1.152-.192 1.536-.288l12-3.744v47.328h-12.864c-2.112 0-3.168.864-3.168 2.4 0 1.632 1.152 2.496 3.168 2.496h30.72c2.016 0 3.072-.864 3.072-2.496 0-1.536-1.056-2.4-3.072-2.4H610.19zM661.95 148.17l-18.433 5.76c-1.824.577-2.4 1.153-2.4 2.497 0 1.248 1.152 2.4 2.304 2.4.192 0 1.152-.192 1.536-.288l12-3.744v47.328h-12.864c-2.112 0-3.168.864-3.168 2.4 0 1.632 1.152 2.496 3.168 2.496h30.72c2.016 0 3.072-.864 3.072-2.496 0-1.536-1.056-2.4-3.072-2.4H661.95zM729.645 173.419c0-15.168-7.488-25.536-18.432-25.536-11.04 0-18.528 10.368-18.528 25.536v9.408c0 15.264 7.488 25.632 18.528 25.632 10.944 0 18.432-10.368 18.432-25.632zm-31.968.576c0-5.952 1.728-12.192 4.512-16.512 2.016-3.072 5.088-4.704 9.024-4.704 3.84 0 6.912 1.632 8.928 4.704 2.784 4.32 4.512 10.56 4.512 16.512v8.352c0 5.856-1.728 12.192-4.512 16.512-2.016 3.072-5.184 4.704-8.928 4.704-3.84 0-7.008-1.632-9.024-4.704-2.784-4.32-4.512-10.656-4.512-16.512zM765.47 148.17l-18.432 5.76c-1.824.577-2.4 1.153-2.4 2.497 0 1.248 1.152 2.4 2.304 2.4.192 0 1.152-.192 1.536-.288l12-3.744v47.328h-12.864c-2.112 0-3.168.864-3.168 2.4 0 1.632 1.152 2.496 3.168 2.496h30.72c2.016 0 3.072-.864 3.072-2.496 0-1.536-1.056-2.4-3.072-2.4H765.47zM833.166 173.419c0-15.168-7.488-25.536-18.432-25.536-11.04 0-18.528 10.368-18.528 25.536v9.408c0 15.264 7.488 25.632 18.528 25.632 10.944 0 18.432-10.368 18.432-25.632zm-31.968.576c0-5.952 1.728-12.192 4.512-16.512 2.016-3.072 5.088-4.704 9.024-4.704 3.84 0 6.912 1.632 8.928 4.704 2.784 4.32 4.512 10.56 4.512 16.512v8.352c0 5.856-1.728 12.192-4.512 16.512-2.016 3.072-5.184 4.704-8.928 4.704-3.84 0-7.008-1.632-9.024-4.704-2.784-4.32-4.512-10.656-4.512-16.512zM868.99 148.17l-18.432 5.76c-1.824.577-2.4 1.153-2.4 2.497 0 1.248 1.152 2.4 2.304 2.4.192 0 1.152-.192 1.536-.288l12-3.744v47.328h-12.864c-2.112 0-3.168.864-3.168 2.4 0 1.632 1.152 2.496 3.168 2.496h30.72c2.016 0 3.072-.864 3.072-2.496 0-1.536-1.056-2.4-3.072-2.4H868.99zM920.75 148.17l-18.432 5.76c-1.824.577-2.4 1.153-2.4 2.497 0 1.248 1.152 2.4 2.304 2.4.192 0 1.152-.192 1.536-.288l12-3.744v47.328h-12.864c-2.112 0-3.168.864-3.168 2.4 0 1.632 1.152 2.496 3.168 2.496h30.72c2.016 0 3.072-.864 3.072-2.496 0-1.536-1.056-2.4-3.072-2.4H920.75zM988.446 173.419c0-15.168-7.488-25.536-18.432-25.536-11.04 0-18.528 10.368-18.528 25.536v9.408c0 15.264 7.488 25.632 18.528 25.632 10.944 0 18.432-10.368 18.432-25.632zm-31.968.576c0-5.952 1.728-12.192 4.512-16.512 2.016-3.072 5.088-4.704 9.024-4.704 3.84 0 6.912 1.632 8.928 4.704 2.784 4.32 4.512 10.56 4.512 16.512v8.352c0 5.856-1.728 12.192-4.512 16.512-2.016 3.072-5.184 4.704-8.928 4.704-3.84 0-7.008-1.632-9.024-4.704-2.784-4.32-4.512-10.656-4.512-16.512zM1040.206 173.419c0-15.168-7.488-25.536-18.432-25.536-11.04 0-18.528 10.368-18.528 25.536v9.408c0 15.264 7.488 25.632 18.528 25.632 10.944 0 18.432-10.368 18.432-25.632zm-31.968.576c0-5.952 1.728-12.192 4.512-16.512 2.016-3.072 5.088-4.704 9.024-4.704 3.84 0 6.912 1.632 8.928 4.704 2.784 4.32 4.512 10.56 4.512 16.512v8.352c0 5.856-1.728 12.192-4.512 16.512-2.016 3.072-5.184 4.704-8.928 4.704-3.84 0-7.008-1.632-9.024-4.704-2.784-4.32-4.512-10.656-4.512-16.512zM1091.966 173.419c0-15.168-7.488-25.536-18.432-25.536-11.04 0-18.528 10.368-18.528 25.536v9.408c0 15.264 7.488 25.632 18.528 25.632 10.944 0 18.432-10.368 18.432-25.632zm-31.968.576c0-5.952 1.728-12.192 4.512-16.512 2.016-3.072 5.088-4.704 9.024-4.704 3.84 0 6.912 1.632 8.928 4.704 2.784 4.32 4.512 10.56 4.512 16.512v8.352c0 5.856-1.728 12.192-4.512 16.512-2.016 3.072-5.184 4.704-8.928 4.704-3.84 0-7.008-1.632-9.024-4.704-2.784-4.32-4.512-10.656-4.512-16.512zM1143.726 173.419c0-15.168-7.488-25.536-18.432-25.536-11.04 0-18.528 10.368-18.528 25.536v9.408c0 15.264 7.488 25.632 18.528 25.632 10.944 0 18.432-10.368 18.432-25.632zm-31.968.576c0-5.952 1.728-12.192 4.512-16.512 2.016-3.072 5.088-4.704 9.024-4.704 3.84 0 6.912 1.632 8.928 4.704 2.784 4.32 4.512 10.56 4.512 16.512v8.352c0 5.856-1.728 12.192-4.512 16.512-2.016 3.072-5.184 4.704-8.928 4.704-3.84 0-7.008-1.632-9.024-4.704-2.784-4.32-4.512-10.656-4.512-16.512zM1179.55 148.17l-18.432 5.76c-1.824.577-2.4 1.153-2.4 2.497 0 1.248 1.152 2.4 2.304 2.4.192 0 1.152-.192 1.536-.288l12-3.744v47.328h-12.864c-2.112 0-3.168.864-3.168 2.4 0 1.632 1.152 2.496 3.168 2.496h30.72c2.016 0 3.072-.864 3.072-2.496 0-1.536-1.056-2.4-3.072-2.4h-12.864zM1247.246 173.419c0-15.168-7.488-25.536-18.432-25.536-11.04 0-18.528 10.368-18.528 25.536v9.408c0 15.264 7.488 25.632 18.528 25.632 10.944 0 18.432-10.368 18.432-25.632zm-31.968.576c0-5.952 1.728-12.192 4.512-16.512 2.016-3.072 5.088-4.704 9.024-4.704 3.84 0 6.912 1.632 8.928 4.704 2.784 4.32 4.512 10.56 4.512 16.512v8.352c0 5.856-1.728 12.192-4.512 16.512-2.016 3.072-5.184 4.704-8.928 4.704-3.84 0-7.008-1.632-9.024-4.704-2.784-4.32-4.512-10.656-4.512-16.512zM1283.07 148.17l-18.432 5.76c-1.824.577-2.4 1.153-2.4 2.497 0 1.248 1.152 2.4 2.304 2.4.192 0 1.152-.192 1.536-.288l12-3.744v47.328h-12.864c-2.112 0-3.168.864-3.168 2.4 0 1.632 1.152 2.496 3.168 2.496h30.72c2.016 0 3.072-.864 3.072-2.496 0-1.536-1.056-2.4-3.072-2.4h-12.864zM1334.83 148.17l-18.432 5.76c-1.824.577-2.4 1.153-2.4 2.497 0 1.248 1.152 2.4 2.304 2.4.192 0 1.152-.192 1.536-.288l12-3.744v47.328h-12.864c-2.112 0-3.168.864-3.168 2.4 0 1.632 1.152 2.496 3.168 2.496h30.72c2.016 0 3.072-.864 3.072-2.496 0-1.536-1.056-2.4-3.072-2.4h-12.864zM1402.526 173.419c0-15.168-7.488-25.536-18.432-25.536-11.04 0-18.528 10.368-18.528 25.536v9.408c0 15.264 7.488 25.632 18.528 25.632 10.944 0 18.432-10.368 18.432-25.632zm-31.968.576c0-5.952 1.728-12.192 4.512-16.512 2.016-3.072 5.088-4.704 9.024-4.704 3.84 0 6.912 1.632 8.928 4.704 2.784 4.32 4.512 10.56 4.512 16.512v8.352c0 5.856-1.728 12.192-4.512 16.512-2.016 3.072-5.184 4.704-8.928 4.704-3.84 0-7.008-1.632-9.024-4.704-2.784-4.32-4.512-10.656-4.512-16.512zM1438.35 148.17l-18.432 5.76c-1.824.577-2.4 1.153-2.4 2.497 0 1.248 1.152 2.4 2.304 2.4.192 0 1.152-.192 1.536-.288l12-3.744v47.328h-12.864c-2.112 0-3.168.864-3.168 2.4 0 1.632 1.152 2.496 3.168 2.496h30.72c2.016 0 3.072-.864 3.072-2.496 0-1.536-1.056-2.4-3.072-2.4h-12.864z"/></g><g aria-label="10010100000000002000" transform="matrix(.84033 0 0 .84033 -359.874 382.556)" style="font-size:96px;line-height:0;font-family:'Nimbus Mono PS';-inkscape-font-specification:'Nimbus Mono PS';letter-spacing:-5.84px;white-space:pre;shape-inside:url(#f);display:inline;fill:#183f3f;stroke-width:18.8976;stroke-linecap:square;stroke-linejoin:bevel"><path d="m506.67 148.17-18.433 5.76c-1.824.577-2.4 1.153-2.4 2.497 0 1.248 1.152 2.4 2.304 2.4.192 0 1.152-.192 1.536-.288l12-3.744v47.328h-12.864c-2.112 0-3.168.864-3.168 2.4 0 1.632 1.152 2.496 3.168 2.496h30.72c2.016 0 3.072-.864 3.072-2.496 0-1.536-1.056-2.4-3.072-2.4H506.67zM574.365 173.419c0-15.168-7.488-25.536-18.432-25.536-11.04 0-18.528 10.368-18.528 25.536v9.408c0 15.264 7.488 25.632 18.528 25.632 10.944 0 18.432-10.368 18.432-25.632zm-31.968.576c0-5.952 1.728-12.192 4.512-16.512 2.016-3.072 5.088-4.704 9.024-4.704 3.84 0 6.912 1.632 8.928 4.704 2.784 4.32 4.512 10.56 4.512 16.512v8.352c0 5.856-1.728 12.192-4.512 16.512-2.016 3.072-5.184 4.704-8.928 4.704-3.84 0-7.008-1.632-9.024-4.704-2.784-4.32-4.512-10.656-4.512-16.512zM626.125 173.419c0-15.168-7.488-25.536-18.432-25.536-11.04 0-18.528 10.368-18.528 25.536v9.408c0 15.264 7.488 25.632 18.528 25.632 10.944 0 18.432-10.368 18.432-25.632zm-31.968.576c0-5.952 1.728-12.192 4.512-16.512 2.016-3.072 5.088-4.704 9.024-4.704 3.84 0 6.912 1.632 8.928 4.704 2.784 4.32 4.512 10.56 4.512 16.512v8.352c0 5.856-1.728 12.192-4.512 16.512-2.016 3.072-5.184 4.704-8.928 4.704-3.84 0-7.008-1.632-9.024-4.704-2.784-4.32-4.512-10.656-4.512-16.512zM661.95 148.17l-18.433 5.76c-1.824.577-2.4 1.153-2.4 2.497 0 1.248 1.152 2.4 2.304 2.4.192 0 1.152-.192 1.536-.288l12-3.744v47.328h-12.864c-2.112 0-3.168.864-3.168 2.4 0 1.632 1.152 2.496 3.168 2.496h30.72c2.016 0 3.072-.864 3.072-2.496 0-1.536-1.056-2.4-3.072-2.4H661.95zM729.645 173.419c0-15.168-7.488-25.536-18.432-25.536-11.04 0-18.528 10.368-18.528 25.536v9.408c0 15.264 7.488 25.632 18.528 25.632 10.944 0 18.432-10.368 18.432-25.632zm-31.968.576c0-5.952 1.728-12.192 4.512-16.512 2.016-3.072 5.088-4.704 9.024-4.704 3.84 0 6.912 1.632 8.928 4.704 2.784 4.32 4.512 10.56 4.512 16.512v8.352c0 5.856-1.728 12.192-4.512 16.512-2.016 3.072-5.184 4.704-8.928 4.704-3.84 0-7.008-1.632-9.024-4.704-2.784-4.32-4.512-10.656-4.512-16.512zM765.47 148.17l-18.432 5.76c-1.824.577-2.4 1.153-2.4 2.497 0 1.248 1.152 2.4 2.304 2.4.192 0 1.152-.192 1.536-.288l12-3.744v47.328h-12.864c-2.112 0-3.168.864-3.168 2.4 0 1.632 1.152 2.496 3.168 2.496h30.72c2.016 0 3.072-.864 3.072-2.496 0-1.536-1.056-2.4-3.072-2.4H765.47zM833.166 173.419c0-15.168-7.488-25.536-18.432-25.536-11.04 0-18.528 10.368-18.528 25.536v9.408c0 15.264 7.488 25.632 18.528 25.632 10.944 0 18.432-10.368 18.432-25.632zm-31.968.576c0-5.952 1.728-12.192 4.512-16.512 2.016-3.072 5.088-4.704 9.024-4.704 3.84 0 6.912 1.632 8.928 4.704 2.784 4.32 4.512 10.56 4.512 16.512v8.352c0 5.856-1.728 12.192-4.512 16.512-2.016 3.072-5.184 4.704-8.928 4.704-3.84 0-7.008-1.632-9.024-4.704-2.784-4.32-4.512-10.656-4.512-16.512zM884.926 173.419c0-15.168-7.488-25.536-18.432-25.536-11.04 0-18.528 10.368-18.528 25.536v9.408c0 15.264 7.488 25.632 18.528 25.632 10.944 0 18.432-10.368 18.432-25.632zm-31.968.576c0-5.952 1.728-12.192 4.512-16.512 2.016-3.072 5.088-4.704 9.024-4.704 3.84 0 6.912 1.632 8.928 4.704 2.784 4.32 4.512 10.56 4.512 16.512v8.352c0 5.856-1.728 12.192-4.512 16.512-2.016 3.072-5.184 4.704-8.928 4.704-3.84 0-7.008-1.632-9.024-4.704-2.784-4.32-4.512-10.656-4.512-16.512zM936.686 173.419c0-15.168-7.488-25.536-18.432-25.536-11.04 0-18.528 10.368-18.528 25.536v9.408c0 15.264 7.488 25.632 18.528 25.632 10.944 0 18.432-10.368 18.432-25.632zm-31.968.576c0-5.952 1.728-12.192 4.512-16.512 2.016-3.072 5.088-4.704 9.024-4.704 3.84 0 6.912 1.632 8.928 4.704 2.784 4.32 4.512 10.56 4.512 16.512v8.352c0 5.856-1.728 12.192-4.512 16.512-2.016 3.072-5.184 4.704-8.928 4.704-3.84 0-7.008-1.632-9.024-4.704-2.784-4.32-4.512-10.656-4.512-16.512zM988.446 173.419c0-15.168-7.488-25.536-18.432-25.536-11.04 0-18.528 10.368-18.528 25.536v9.408c0 15.264 7.488 25.632 18.528 25.632 10.944 0 18.432-10.368 18.432-25.632zm-31.968.576c0-5.952 1.728-12.192 4.512-16.512 2.016-3.072 5.088-4.704 9.024-4.704 3.84 0 6.912 1.632 8.928 4.704 2.784 4.32 4.512 10.56 4.512 16.512v8.352c0 5.856-1.728 12.192-4.512 16.512-2.016 3.072-5.184 4.704-8.928 4.704-3.84 0-7.008-1.632-9.024-4.704-2.784-4.32-4.512-10.656-4.512-16.512zM1040.206 173.419c0-15.168-7.488-25.536-18.432-25.536-11.04 0-18.528 10.368-18.528 25.536v9.408c0 15.264 7.488 25.632 18.528 25.632 10.944 0 18.432-10.368 18.432-25.632zm-31.968.576c0-5.952 1.728-12.192 4.512-16.512 2.016-3.072 5.088-4.704 9.024-4.704 3.84 0 6.912 1.632 8.928 4.704 2.784 4.32 4.512 10.56 4.512 16.512v8.352c0 5.856-1.728 12.192-4.512 16.512-2.016 3.072-5.184 4.704-8.928 4.704-3.84 0-7.008-1.632-9.024-4.704-2.784-4.32-4.512-10.656-4.512-16.512zM1091.966 173.419c0-15.168-7.488-25.536-18.432-25.536-11.04 0-18.528 10.368-18.528 25.536v9.408c0 15.264 7.488 25.632 18.528 25.632 10.944 0 18.432-10.368 18.432-25.632zm-31.968.576c0-5.952 1.728-12.192 4.512-16.512 2.016-3.072 5.088-4.704 9.024-4.704 3.84 0 6.912 1.632 8.928 4.704 2.784 4.32 4.512 10.56 4.512 16.512v8.352c0 5.856-1.728 12.192-4.512 16.512-2.016 3.072-5.184 4.704-8.928 4.704-3.84 0-7.008-1.632-9.024-4.704-2.784-4.32-4.512-10.656-4.512-16.512zM1143.726 173.419c0-15.168-7.488-25.536-18.432-25.536-11.04 0-18.528 10.368-18.528 25.536v9.408c0 15.264 7.488 25.632 18.528 25.632 10.944 0 18.432-10.368 18.432-25.632zm-31.968.576c0-5.952 1.728-12.192 4.512-16.512 2.016-3.072 5.088-4.704 9.024-4.704 3.84 0 6.912 1.632 8.928 4.704 2.784 4.32 4.512 10.56 4.512 16.512v8.352c0 5.856-1.728 12.192-4.512 16.512-2.016 3.072-5.184 4.704-8.928 4.704-3.84 0-7.008-1.632-9.024-4.704-2.784-4.32-4.512-10.656-4.512-16.512zM1195.486 173.419c0-15.168-7.488-25.536-18.432-25.536-11.04 0-18.528 10.368-18.528 25.536v9.408c0 15.264 7.488 25.632 18.528 25.632 10.944 0 18.432-10.368 18.432-25.632zm-31.968.576c0-5.952 1.728-12.192 4.512-16.512 2.016-3.072 5.088-4.704 9.024-4.704 3.84 0 6.912 1.632 8.928 4.704 2.784 4.32 4.512 10.56 4.512 16.512v8.352c0 5.856-1.728 12.192-4.512 16.512-2.016 3.072-5.184 4.704-8.928 4.704-3.84 0-7.008-1.632-9.024-4.704-2.784-4.32-4.512-10.656-4.512-16.512zM1247.246 173.419c0-15.168-7.488-25.536-18.432-25.536-11.04 0-18.528 10.368-18.528 25.536v9.408c0 15.264 7.488 25.632 18.528 25.632 10.944 0 18.432-10.368 18.432-25.632zm-31.968.576c0-5.952 1.728-12.192 4.512-16.512 2.016-3.072 5.088-4.704 9.024-4.704 3.84 0 6.912 1.632 8.928 4.704 2.784 4.32 4.512 10.56 4.512 16.512v8.352c0 5.856-1.728 12.192-4.512 16.512-2.016 3.072-5.184 4.704-8.928 4.704-3.84 0-7.008-1.632-9.024-4.704-2.784-4.32-4.512-10.656-4.512-16.512zM1299.006 173.419c0-15.168-7.488-25.536-18.432-25.536-11.04 0-18.528 10.368-18.528 25.536v9.408c0 15.264 7.488 25.632 18.528 25.632 10.944 0 18.432-10.368 18.432-25.632zm-31.968.576c0-5.952 1.728-12.192 4.512-16.512 2.016-3.072 5.088-4.704 9.024-4.704 3.84 0 6.912 1.632 8.928 4.704 2.784 4.32 4.512 10.56 4.512 16.512v8.352c0 5.856-1.728 12.192-4.512 16.512-2.016 3.072-5.184 4.704-8.928 4.704-3.84 0-7.008-1.632-9.024-4.704-2.784-4.32-4.512-10.656-4.512-16.512zM1334.83 148.17l-18.432 5.76c-1.824.577-2.4 1.153-2.4 2.497 0 1.248 1.152 2.4 2.304 2.4.192 0 1.152-.192 1.536-.288l12-3.744v47.328h-12.864c-2.112 0-3.168.864-3.168 2.4 0 1.632 1.152 2.496 3.168 2.496h30.72c2.016 0 3.072-.864 3.072-2.496 0-1.536-1.056-2.4-3.072-2.4h-12.864zM1386.59 148.17l-18.432 5.76c-1.824.577-2.4 1.153-2.4 2.497 0 1.248 1.152 2.4 2.304 2.4.192 0 1.152-.192 1.536-.288l12-3.744v47.328h-12.864c-2.112 0-3.168.864-3.168 2.4 0 1.632 1.152 2.496 3.168 2.496h30.72c2.016 0 3.072-.864 3.072-2.496 0-1.536-1.056-2.4-3.072-2.4h-12.864zM1454.286 173.419c0-15.168-7.488-25.536-18.432-25.536-11.04 0-18.528 10.368-18.528 25.536v9.408c0 15.264 7.488 25.632 18.528 25.632 10.944 0 18.432-10.368 18.432-25.632zm-31.968.576c0-5.952 1.728-12.192 4.512-16.512 2.016-3.072 5.088-4.704 9.024-4.704 3.84 0 6.912 1.632 8.928 4.704 2.784 4.32 4.512 10.56 4.512 16.512v8.352c0 5.856-1.728 12.192-4.512 16.512-2.016 3.072-5.184 4.704-8.928 4.704-3.84 0-7.008-1.632-9.024-4.704-2.784-4.32-4.512-10.656-4.512-16.512zM1490.11 148.17l-18.432 5.76c-1.824.577-2.4 1.153-2.4 2.497 0 1.248 1.152 2.4 2.304 2.4.192 0 1.152-.192 1.536-.288l12-3.744v47.328h-12.864c-2.112 0-3.168.864-3.168 2.4 0 1.632 1.152 2.496 3.168 2.496h30.72c2.016 0 3.072-.864 3.072-2.496 0-1.536-1.056-2.4-3.072-2.4h-12.864z"/></g><g aria-label="1011100110000000000" transform="matrix(.84033 0 0 .84033 -338.175 462.65)" style="font-size:96px;line-height:0;font-family:'Nimbus Mono PS';-inkscape-font-specification:'Nimbus Mono PS';letter-spacing:-5.84px;white-space:pre;shape-inside:url(#g);display:inline;fill:#183f3f;stroke-width:18.8976;stroke-linecap:square;stroke-linejoin:bevel"><path d="m506.67 148.17-18.433 5.76c-1.824.577-2.4 1.153-2.4 2.497 0 1.248 1.152 2.4 2.304 2.4.192 0 1.152-.192 1.536-.288l12-3.744v47.328h-12.864c-2.112 0-3.168.864-3.168 2.4 0 1.632 1.152 2.496 3.168 2.496h30.72c2.016 0 3.072-.864 3.072-2.496 0-1.536-1.056-2.4-3.072-2.4H506.67zM574.365 173.419c0-15.168-7.488-25.536-18.432-25.536-11.04 0-18.528 10.368-18.528 25.536v9.408c0 15.264 7.488 25.632 18.528 25.632 10.944 0 18.432-10.368 18.432-25.632zm-31.968.576c0-5.952 1.728-12.192 4.512-16.512 2.016-3.072 5.088-4.704 9.024-4.704 3.84 0 6.912 1.632 8.928 4.704 2.784 4.32 4.512 10.56 4.512 16.512v8.352c0 5.856-1.728 12.192-4.512 16.512-2.016 3.072-5.184 4.704-8.928 4.704-3.84 0-7.008-1.632-9.024-4.704-2.784-4.32-4.512-10.656-4.512-16.512zM610.19 148.17l-18.433 5.76c-1.824.577-2.4 1.153-2.4 2.497 0 1.248 1.152 2.4 2.304 2.4.192 0 1.152-.192 1.536-.288l12-3.744v47.328h-12.864c-2.112 0-3.168.864-3.168 2.4 0 1.632 1.152 2.496 3.168 2.496h30.72c2.016 0 3.072-.864 3.072-2.496 0-1.536-1.056-2.4-3.072-2.4H610.19zM661.95 148.17l-18.433 5.76c-1.824.577-2.4 1.153-2.4 2.497 0 1.248 1.152 2.4 2.304 2.4.192 0 1.152-.192 1.536-.288l12-3.744v47.328h-12.864c-2.112 0-3.168.864-3.168 2.4 0 1.632 1.152 2.496 3.168 2.496h30.72c2.016 0 3.072-.864 3.072-2.496 0-1.536-1.056-2.4-3.072-2.4H661.95zM713.71 148.17l-18.433 5.76c-1.824.577-2.4 1.153-2.4 2.497 0 1.248 1.152 2.4 2.304 2.4.192 0 1.152-.192 1.536-.288l12-3.744v47.328h-12.864c-2.112 0-3.168.864-3.168 2.4 0 1.632 1.152 2.496 3.168 2.496h30.72c2.016 0 3.072-.864 3.072-2.496 0-1.536-1.056-2.4-3.072-2.4H713.71zM781.406 173.419c0-15.168-7.488-25.536-18.432-25.536-11.04 0-18.528 10.368-18.528 25.536v9.408c0 15.264 7.488 25.632 18.528 25.632 10.944 0 18.432-10.368 18.432-25.632zm-31.968.576c0-5.952 1.728-12.192 4.512-16.512 2.016-3.072 5.088-4.704 9.024-4.704 3.84 0 6.912 1.632 8.928 4.704 2.784 4.32 4.512 10.56 4.512 16.512v8.352c0 5.856-1.728 12.192-4.512 16.512-2.016 3.072-5.184 4.704-8.928 4.704-3.84 0-7.008-1.632-9.024-4.704-2.784-4.32-4.512-10.656-4.512-16.512zM833.166 173.419c0-15.168-7.488-25.536-18.432-25.536-11.04 0-18.528 10.368-18.528 25.536v9.408c0 15.264 7.488 25.632 18.528 25.632 10.944 0 18.432-10.368 18.432-25.632zm-31.968.576c0-5.952 1.728-12.192 4.512-16.512 2.016-3.072 5.088-4.704 9.024-4.704 3.84 0 6.912 1.632 8.928 4.704 2.784 4.32 4.512 10.56 4.512 16.512v8.352c0 5.856-1.728 12.192-4.512 16.512-2.016 3.072-5.184 4.704-8.928 4.704-3.84 0-7.008-1.632-9.024-4.704-2.784-4.32-4.512-10.656-4.512-16.512zM868.99 148.17l-18.432 5.76c-1.824.577-2.4 1.153-2.4 2.497 0 1.248 1.152 2.4 2.304 2.4.192 0 1.152-.192 1.536-.288l12-3.744v47.328h-12.864c-2.112 0-3.168.864-3.168 2.4 0 1.632 1.152 2.496 3.168 2.496h30.72c2.016 0 3.072-.864 3.072-2.496 0-1.536-1.056-2.4-3.072-2.4H868.99zM920.75 148.17l-18.432 5.76c-1.824.577-2.4 1.153-2.4 2.497 0 1.248 1.152 2.4 2.304 2.4.192 0 1.152-.192 1.536-.288l12-3.744v47.328h-12.864c-2.112 0-3.168.864-3.168 2.4 0 1.632 1.152 2.496 3.168 2.496h30.72c2.016 0 3.072-.864 3.072-2.496 0-1.536-1.056-2.4-3.072-2.4H920.75zM988.446 173.419c0-15.168-7.488-25.536-18.432-25.536-11.04 0-18.528 10.368-18.528 25.536v9.408c0 15.264 7.488 25.632 18.528 25.632 10.944 0 18.432-10.368 18.432-25.632zm-31.968.576c0-5.952 1.728-12.192 4.512-16.512 2.016-3.072 5.088-4.704 9.024-4.704 3.84 0 6.912 1.632 8.928 4.704 2.784 4.32 4.512 10.56 4.512 16.512v8.352c0 5.856-1.728 12.192-4.512 16.512-2.016 3.072-5.184 4.704-8.928 4.704-3.84 0-7.008-1.632-9.024-4.704-2.784-4.32-4.512-10.656-4.512-16.512zM1040.206 173.419c0-15.168-7.488-25.536-18.432-25.536-11.04 0-18.528 10.368-18.528 25.536v9.408c0 15.264 7.488 25.632 18.528 25.632 10.944 0 18.432-10.368 18.432-25.632zm-31.968.576c0-5.952 1.728-12.192 4.512-16.512 2.016-3.072 5.088-4.704 9.024-4.704 3.84 0 6.912 1.632 8.928 4.704 2.784 4.32 4.512 10.56 4.512 16.512v8.352c0 5.856-1.728 12.192-4.512 16.512-2.016 3.072-5.184 4.704-8.928 4.704-3.84 0-7.008-1.632-9.024-4.704-2.784-4.32-4.512-10.656-4.512-16.512zM1091.966 173.419c0-15.168-7.488-25.536-18.432-25.536-11.04 0-18.528 10.368-18.528 25.536v9.408c0 15.264 7.488 25.632 18.528 25.632 10.944 0 18.432-10.368 18.432-25.632zm-31.968.576c0-5.952 1.728-12.192 4.512-16.512 2.016-3.072 5.088-4.704 9.024-4.704 3.84 0 6.912 1.632 8.928 4.704 2.784 4.32 4.512 10.56 4.512 16.512v8.352c0 5.856-1.728 12.192-4.512 16.512-2.016 3.072-5.184 4.704-8.928 4.704-3.84 0-7.008-1.632-9.024-4.704-2.784-4.32-4.512-10.656-4.512-16.512zM1143.726 173.419c0-15.168-7.488-25.536-18.432-25.536-11.04 0-18.528 10.368-18.528 25.536v9.408c0 15.264 7.488 25.632 18.528 25.632 10.944 0 18.432-10.368 18.432-25.632zm-31.968.576c0-5.952 1.728-12.192 4.512-16.512 2.016-3.072 5.088-4.704 9.024-4.704 3.84 0 6.912 1.632 8.928 4.704 2.784 4.32 4.512 10.56 4.512 16.512v8.352c0 5.856-1.728 12.192-4.512 16.512-2.016 3.072-5.184 4.704-8.928 4.704-3.84 0-7.008-1.632-9.024-4.704-2.784-4.32-4.512-10.656-4.512-16.512zM1195.486 173.419c0-15.168-7.488-25.536-18.432-25.536-11.04 0-18.528 10.368-18.528 25.536v9.408c0 15.264 7.488 25.632 18.528 25.632 10.944 0 18.432-10.368 18.432-25.632zm-31.968.576c0-5.952 1.728-12.192 4.512-16.512 2.016-3.072 5.088-4.704 9.024-4.704 3.84 0 6.912 1.632 8.928 4.704 2.784 4.32 4.512 10.56 4.512 16.512v8.352c0 5.856-1.728 12.192-4.512 16.512-2.016 3.072-5.184 4.704-8.928 4.704-3.84 0-7.008-1.632-9.024-4.704-2.784-4.32-4.512-10.656-4.512-16.512zM1247.246 173.419c0-15.168-7.488-25.536-18.432-25.536-11.04 0-18.528 10.368-18.528 25.536v9.408c0 15.264 7.488 25.632 18.528 25.632 10.944 0 18.432-10.368 18.432-25.632zm-31.968.576c0-5.952 1.728-12.192 4.512-16.512 2.016-3.072 5.088-4.704 9.024-4.704 3.84 0 6.912 1.632 8.928 4.704 2.784 4.32 4.512 10.56 4.512 16.512v8.352c0 5.856-1.728 12.192-4.512 16.512-2.016 3.072-5.184 4.704-8.928 4.704-3.84 0-7.008-1.632-9.024-4.704-2.784-4.32-4.512-10.656-4.512-16.512zM1299.006 173.419c0-15.168-7.488-25.536-18.432-25.536-11.04 0-18.528 10.368-18.528 25.536v9.408c0 15.264 7.488 25.632 18.528 25.632 10.944 0 18.432-10.368 18.432-25.632zm-31.968.576c0-5.952 1.728-12.192 4.512-16.512 2.016-3.072 5.088-4.704 9.024-4.704 3.84 0 6.912 1.632 8.928 4.704 2.784 4.32 4.512 10.56 4.512 16.512v8.352c0 5.856-1.728 12.192-4.512 16.512-2.016 3.072-5.184 4.704-8.928 4.704-3.84 0-7.008-1.632-9.024-4.704-2.784-4.32-4.512-10.656-4.512-16.512zM1350.766 173.419c0-15.168-7.488-25.536-18.432-25.536-11.04 0-18.528 10.368-18.528 25.536v9.408c0 15.264 7.488 25.632 18.528 25.632 10.944 0 18.432-10.368 18.432-25.632zm-31.968.576c0-5.952 1.728-12.192 4.512-16.512 2.016-3.072 5.088-4.704 9.024-4.704 3.84 0 6.912 1.632 8.928 4.704 2.784 4.32 4.512 10.56 4.512 16.512v8.352c0 5.856-1.728 12.192-4.512 16.512-2.016 3.072-5.184 4.704-8.928 4.704-3.84 0-7.008-1.632-9.024-4.704-2.784-4.32-4.512-10.656-4.512-16.512zM1386.59 148.17l-18.432 5.76c-1.824.577-2.4 1.153-2.4 2.497 0 1.248 1.152 2.4 2.304 2.4.192 0 1.152-.192 1.536-.288l12-3.744v47.328h-12.864c-2.112 0-3.168.864-3.168 2.4 0 1.632 1.152 2.496 3.168 2.496h30.72c2.016 0 3.072-.864 3.072-2.496 0-1.536-1.056-2.4-3.072-2.4h-12.864zM1454.286 173.419c0-15.168-7.488-25.536-18.432-25.536-11.04 0-18.528 10.368-18.528 25.536v9.408c0 15.264 7.488 25.632 18.528 25.632 10.944 0 18.432-10.368 18.432-25.632zm-31.968.576c0-5.952 1.728-12.192 4.512-16.512 2.016-3.072 5.088-4.704 9.024-4.704 3.84 0 6.912 1.632 8.928 4.704 2.784 4.32 4.512 10.56 4.512 16.512v8.352c0 5.856-1.728 12.192-4.512 16.512-2.016 3.072-5.184 4.704-8.928 4.704-3.84 0-7.008-1.632-9.024-4.704-2.784-4.32-4.512-10.656-4.512-16.512z"/></g><g aria-label="100110011000000000" transform="matrix(.84033 0 0 .84033 -317.996 541.44)" style="font-size:96px;line-height:0;font-family:'Nimbus Mono PS';-inkscape-font-specification:'Nimbus Mono PS';letter-spacing:-5.84px;white-space:pre;shape-inside:url(#h);display:inline;fill:#183f3f;stroke-width:18.8976;stroke-linecap:square;stroke-linejoin:bevel"><path d="m506.67 148.17-18.433 5.76c-1.824.577-2.4 1.153-2.4 2.497 0 1.248 1.152 2.4 2.304 2.4.192 0 1.152-.192 1.536-.288l12-3.744v47.328h-12.864c-2.112 0-3.168.864-3.168 2.4 0 1.632 1.152 2.496 3.168 2.496h30.72c2.016 0 3.072-.864 3.072-2.496 0-1.536-1.056-2.4-3.072-2.4H506.67zM574.365 173.419c0-15.168-7.488-25.536-18.432-25.536-11.04 0-18.528 10.368-18.528 25.536v9.408c0 15.264 7.488 25.632 18.528 25.632 10.944 0 18.432-10.368 18.432-25.632zm-31.968.576c0-5.952 1.728-12.192 4.512-16.512 2.016-3.072 5.088-4.704 9.024-4.704 3.84 0 6.912 1.632 8.928 4.704 2.784 4.32 4.512 10.56 4.512 16.512v8.352c0 5.856-1.728 12.192-4.512 16.512-2.016 3.072-5.184 4.704-8.928 4.704-3.84 0-7.008-1.632-9.024-4.704-2.784-4.32-4.512-10.656-4.512-16.512zM626.125 173.419c0-15.168-7.488-25.536-18.432-25.536-11.04 0-18.528 10.368-18.528 25.536v9.408c0 15.264 7.488 25.632 18.528 25.632 10.944 0 18.432-10.368 18.432-25.632zm-31.968.576c0-5.952 1.728-12.192 4.512-16.512 2.016-3.072 5.088-4.704 9.024-4.704 3.84 0 6.912 1.632 8.928 4.704 2.784 4.32 4.512 10.56 4.512 16.512v8.352c0 5.856-1.728 12.192-4.512 16.512-2.016 3.072-5.184 4.704-8.928 4.704-3.84 0-7.008-1.632-9.024-4.704-2.784-4.32-4.512-10.656-4.512-16.512zM661.95 148.17l-18.433 5.76c-1.824.577-2.4 1.153-2.4 2.497 0 1.248 1.152 2.4 2.304 2.4.192 0 1.152-.192 1.536-.288l12-3.744v47.328h-12.864c-2.112 0-3.168.864-3.168 2.4 0 1.632 1.152 2.496 3.168 2.496h30.72c2.016 0 3.072-.864 3.072-2.496 0-1.536-1.056-2.4-3.072-2.4H661.95zM713.71 148.17l-18.433 5.76c-1.824.577-2.4 1.153-2.4 2.497 0 1.248 1.152 2.4 2.304 2.4.192 0 1.152-.192 1.536-.288l12-3.744v47.328h-12.864c-2.112 0-3.168.864-3.168 2.4 0 1.632 1.152 2.496 3.168 2.496h30.72c2.016 0 3.072-.864 3.072-2.496 0-1.536-1.056-2.4-3.072-2.4H713.71zM781.406 173.419c0-15.168-7.488-25.536-18.432-25.536-11.04 0-18.528 10.368-18.528 25.536v9.408c0 15.264 7.488 25.632 18.528 25.632 10.944 0 18.432-10.368 18.432-25.632zm-31.968.576c0-5.952 1.728-12.192 4.512-16.512 2.016-3.072 5.088-4.704 9.024-4.704 3.84 0 6.912 1.632 8.928 4.704 2.784 4.32 4.512 10.56 4.512 16.512v8.352c0 5.856-1.728 12.192-4.512 16.512-2.016 3.072-5.184 4.704-8.928 4.704-3.84 0-7.008-1.632-9.024-4.704-2.784-4.32-4.512-10.656-4.512-16.512zM833.166 173.419c0-15.168-7.488-25.536-18.432-25.536-11.04 0-18.528 10.368-18.528 25.536v9.408c0 15.264 7.488 25.632 18.528 25.632 10.944 0 18.432-10.368 18.432-25.632zm-31.968.576c0-5.952 1.728-12.192 4.512-16.512 2.016-3.072 5.088-4.704 9.024-4.704 3.84 0 6.912 1.632 8.928 4.704 2.784 4.32 4.512 10.56 4.512 16.512v8.352c0 5.856-1.728 12.192-4.512 16.512-2.016 3.072-5.184 4.704-8.928 4.704-3.84 0-7.008-1.632-9.024-4.704-2.784-4.32-4.512-10.656-4.512-16.512zM868.99 148.17l-18.432 5.76c-1.824.577-2.4 1.153-2.4 2.497 0 1.248 1.152 2.4 2.304 2.4.192 0 1.152-.192 1.536-.288l12-3.744v47.328h-12.864c-2.112 0-3.168.864-3.168 2.4 0 1.632 1.152 2.496 3.168 2.496h30.72c2.016 0 3.072-.864 3.072-2.496 0-1.536-1.056-2.4-3.072-2.4H868.99zM920.75 148.17l-18.432 5.76c-1.824.577-2.4 1.153-2.4 2.497 0 1.248 1.152 2.4 2.304 2.4.192 0 1.152-.192 1.536-.288l12-3.744v47.328h-12.864c-2.112 0-3.168.864-3.168 2.4 0 1.632 1.152 2.496 3.168 2.496h30.72c2.016 0 3.072-.864 3.072-2.496 0-1.536-1.056-2.4-3.072-2.4H920.75zM988.446 173.419c0-15.168-7.488-25.536-18.432-25.536-11.04 0-18.528 10.368-18.528 25.536v9.408c0 15.264 7.488 25.632 18.528 25.632 10.944 0 18.432-10.368 18.432-25.632zm-31.968.576c0-5.952 1.728-12.192 4.512-16.512 2.016-3.072 5.088-4.704 9.024-4.704 3.84 0 6.912 1.632 8.928 4.704 2.784 4.32 4.512 10.56 4.512 16.512v8.352c0 5.856-1.728 12.192-4.512 16.512-2.016 3.072-5.184 4.704-8.928 4.704-3.84 0-7.008-1.632-9.024-4.704-2.784-4.32-4.512-10.656-4.512-16.512zM1040.206 173.419c0-15.168-7.488-25.536-18.432-25.536-11.04 0-18.528 10.368-18.528 25.536v9.408c0 15.264 7.488 25.632 18.528 25.632 10.944 0 18.432-10.368 18.432-25.632zm-31.968.576c0-5.952 1.728-12.192 4.512-16.512 2.016-3.072 5.088-4.704 9.024-4.704 3.84 0 6.912 1.632 8.928 4.704 2.784 4.32 4.512 10.56 4.512 16.512v8.352c0 5.856-1.728 12.192-4.512 16.512-2.016 3.072-5.184 4.704-8.928 4.704-3.84 0-7.008-1.632-9.024-4.704-2.784-4.32-4.512-10.656-4.512-16.512zM1091.966 173.419c0-15.168-7.488-25.536-18.432-25.536-11.04 0-18.528 10.368-18.528 25.536v9.408c0 15.264 7.488 25.632 18.528 25.632 10.944 0 18.432-10.368 18.432-25.632zm-31.968.576c0-5.952 1.728-12.192 4.512-16.512 2.016-3.072 5.088-4.704 9.024-4.704 3.84 0 6.912 1.632 8.928 4.704 2.784 4.32 4.512 10.56 4.512 16.512v8.352c0 5.856-1.728 12.192-4.512 16.512-2.016 3.072-5.184 4.704-8.928 4.704-3.84 0-7.008-1.632-9.024-4.704-2.784-4.32-4.512-10.656-4.512-16.512zM1143.726 173.419c0-15.168-7.488-25.536-18.432-25.536-11.04 0-18.528 10.368-18.528 25.536v9.408c0 15.264 7.488 25.632 18.528 25.632 10.944 0 18.432-10.368 18.432-25.632zm-31.968.576c0-5.952 1.728-12.192 4.512-16.512 2.016-3.072 5.088-4.704 9.024-4.704 3.84 0 6.912 1.632 8.928 4.704 2.784 4.32 4.512 10.56 4.512 16.512v8.352c0 5.856-1.728 12.192-4.512 16.512-2.016 3.072-5.184 4.704-8.928 4.704-3.84 0-7.008-1.632-9.024-4.704-2.784-4.32-4.512-10.656-4.512-16.512zM1195.486 173.419c0-15.168-7.488-25.536-18.432-25.536-11.04 0-18.528 10.368-18.528 25.536v9.408c0 15.264 7.488 25.632 18.528 25.632 10.944 0 18.432-10.368 18.432-25.632zm-31.968.576c0-5.952 1.728-12.192 4.512-16.512 2.016-3.072 5.088-4.704 9.024-4.704 3.84 0 6.912 1.632 8.928 4.704 2.784 4.32 4.512 10.56 4.512 16.512v8.352c0 5.856-1.728 12.192-4.512 16.512-2.016 3.072-5.184 4.704-8.928 4.704-3.84 0-7.008-1.632-9.024-4.704-2.784-4.32-4.512-10.656-4.512-16.512zM1247.246 173.419c0-15.168-7.488-25.536-18.432-25.536-11.04 0-18.528 10.368-18.528 25.536v9.408c0 15.264 7.488 25.632 18.528 25.632 10.944 0 18.432-10.368 18.432-25.632zm-31.968.576c0-5.952 1.728-12.192 4.512-16.512 2.016-3.072 5.088-4.704 9.024-4.704 3.84 0 6.912 1.632 8.928 4.704 2.784 4.32 4.512 10.56 4.512 16.512v8.352c0 5.856-1.728 12.192-4.512 16.512-2.016 3.072-5.184 4.704-8.928 4.704-3.84 0-7.008-1.632-9.024-4.704-2.784-4.32-4.512-10.656-4.512-16.512zM1299.006 173.419c0-15.168-7.488-25.536-18.432-25.536-11.04 0-18.528 10.368-18.528 25.536v9.408c0 15.264 7.488 25.632 18.528 25.632 10.944 0 18.432-10.368 18.432-25.632zm-31.968.576c0-5.952 1.728-12.192 4.512-16.512 2.016-3.072 5.088-4.704 9.024-4.704 3.84 0 6.912 1.632 8.928 4.704 2.784 4.32 4.512 10.56 4.512 16.512v8.352c0 5.856-1.728 12.192-4.512 16.512-2.016 3.072-5.184 4.704-8.928 4.704-3.84 0-7.008-1.632-9.024-4.704-2.784-4.32-4.512-10.656-4.512-16.512zM1350.766 173.419c0-15.168-7.488-25.536-18.432-25.536-11.04 0-18.528 10.368-18.528 25.536v9.408c0 15.264 7.488 25.632 18.528 25.632 10.944 0 18.432-10.368 18.432-25.632zm-31.968.576c0-5.952 1.728-12.192 4.512-16.512 2.016-3.072 5.088-4.704 9.024-4.704 3.84 0 6.912 1.632 8.928 4.704 2.784 4.32 4.512 10.56 4.512 16.512v8.352c0 5.856-1.728 12.192-4.512 16.512-2.016 3.072-5.184 4.704-8.928 4.704-3.84 0-7.008-1.632-9.024-4.704-2.784-4.32-4.512-10.656-4.512-16.512zM1386.59 148.17l-18.432 5.76c-1.824.577-2.4 1.153-2.4 2.497 0 1.248 1.152 2.4 2.304 2.4.192 0 1.152-.192 1.536-.288l12-3.744v47.328h-12.864c-2.112 0-3.168.864-3.168 2.4 0 1.632 1.152 2.496 3.168 2.496h30.72c2.016 0 3.072-.864 3.072-2.496 0-1.536-1.056-2.4-3.072-2.4h-12.864z"/></g><g aria-label="101110011000001" transform="matrix(.84033 0 0 .84033 -253.218 621.908)" style="font-size:96px;line-height:0;font-family:'Nimbus Mono PS';-inkscape-font-specification:'Nimbus Mono PS';letter-spacing:-5.84px;white-space:pre;shape-inside:url(#i);display:inline;fill:#183f3f;stroke-width:18.8976;stroke-linecap:square;stroke-linejoin:bevel"><path d="m506.67 148.17-18.433 5.76c-1.824.577-2.4 1.153-2.4 2.497 0 1.248 1.152 2.4 2.304 2.4.192 0 1.152-.192 1.536-.288l12-3.744v47.328h-12.864c-2.112 0-3.168.864-3.168 2.4 0 1.632 1.152 2.496 3.168 2.496h30.72c2.016 0 3.072-.864 3.072-2.496 0-1.536-1.056-2.4-3.072-2.4H506.67zM574.365 173.419c0-15.168-7.488-25.536-18.432-25.536-11.04 0-18.528 10.368-18.528 25.536v9.408c0 15.264 7.488 25.632 18.528 25.632 10.944 0 18.432-10.368 18.432-25.632zm-31.968.576c0-5.952 1.728-12.192 4.512-16.512 2.016-3.072 5.088-4.704 9.024-4.704 3.84 0 6.912 1.632 8.928 4.704 2.784 4.32 4.512 10.56 4.512 16.512v8.352c0 5.856-1.728 12.192-4.512 16.512-2.016 3.072-5.184 4.704-8.928 4.704-3.84 0-7.008-1.632-9.024-4.704-2.784-4.32-4.512-10.656-4.512-16.512zM610.19 148.17l-18.433 5.76c-1.824.577-2.4 1.153-2.4 2.497 0 1.248 1.152 2.4 2.304 2.4.192 0 1.152-.192 1.536-.288l12-3.744v47.328h-12.864c-2.112 0-3.168.864-3.168 2.4 0 1.632 1.152 2.496 3.168 2.496h30.72c2.016 0 3.072-.864 3.072-2.496 0-1.536-1.056-2.4-3.072-2.4H610.19zM661.95 148.17l-18.433 5.76c-1.824.577-2.4 1.153-2.4 2.497 0 1.248 1.152 2.4 2.304 2.4.192 0 1.152-.192 1.536-.288l12-3.744v47.328h-12.864c-2.112 0-3.168.864-3.168 2.4 0 1.632 1.152 2.496 3.168 2.496h30.72c2.016 0 3.072-.864 3.072-2.496 0-1.536-1.056-2.4-3.072-2.4H661.95zM713.71 148.17l-18.433 5.76c-1.824.577-2.4 1.153-2.4 2.497 0 1.248 1.152 2.4 2.304 2.4.192 0 1.152-.192 1.536-.288l12-3.744v47.328h-12.864c-2.112 0-3.168.864-3.168 2.4 0 1.632 1.152 2.496 3.168 2.496h30.72c2.016 0 3.072-.864 3.072-2.496 0-1.536-1.056-2.4-3.072-2.4H713.71zM781.406 173.419c0-15.168-7.488-25.536-18.432-25.536-11.04 0-18.528 10.368-18.528 25.536v9.408c0 15.264 7.488 25.632 18.528 25.632 10.944 0 18.432-10.368 18.432-25.632zm-31.968.576c0-5.952 1.728-12.192 4.512-16.512 2.016-3.072 5.088-4.704 9.024-4.704 3.84 0 6.912 1.632 8.928 4.704 2.784 4.32 4.512 10.56 4.512 16.512v8.352c0 5.856-1.728 12.192-4.512 16.512-2.016 3.072-5.184 4.704-8.928 4.704-3.84 0-7.008-1.632-9.024-4.704-2.784-4.32-4.512-10.656-4.512-16.512zM833.166 173.419c0-15.168-7.488-25.536-18.432-25.536-11.04 0-18.528 10.368-18.528 25.536v9.408c0 15.264 7.488 25.632 18.528 25.632 10.944 0 18.432-10.368 18.432-25.632zm-31.968.576c0-5.952 1.728-12.192 4.512-16.512 2.016-3.072 5.088-4.704 9.024-4.704 3.84 0 6.912 1.632 8.928 4.704 2.784 4.32 4.512 10.56 4.512 16.512v8.352c0 5.856-1.728 12.192-4.512 16.512-2.016 3.072-5.184 4.704-8.928 4.704-3.84 0-7.008-1.632-9.024-4.704-2.784-4.32-4.512-10.656-4.512-16.512zM868.99 148.17l-18.432 5.76c-1.824.577-2.4 1.153-2.4 2.497 0 1.248 1.152 2.4 2.304 2.4.192 0 1.152-.192 1.536-.288l12-3.744v47.328h-12.864c-2.112 0-3.168.864-3.168 2.4 0 1.632 1.152 2.496 3.168 2.496h30.72c2.016 0 3.072-.864 3.072-2.496 0-1.536-1.056-2.4-3.072-2.4H868.99zM920.75 148.17l-18.432 5.76c-1.824.577-2.4 1.153-2.4 2.497 0 1.248 1.152 2.4 2.304 2.4.192 0 1.152-.192 1.536-.288l12-3.744v47.328h-12.864c-2.112 0-3.168.864-3.168 2.4 0 1.632 1.152 2.496 3.168 2.496h30.72c2.016 0 3.072-.864 3.072-2.496 0-1.536-1.056-2.4-3.072-2.4H920.75zM988.446 173.419c0-15.168-7.488-25.536-18.432-25.536-11.04 0-18.528 10.368-18.528 25.536v9.408c0 15.264 7.488 25.632 18.528 25.632 10.944 0 18.432-10.368 18.432-25.632zm-31.968.576c0-5.952 1.728-12.192 4.512-16.512 2.016-3.072 5.088-4.704 9.024-4.704 3.84 0 6.912 1.632 8.928 4.704 2.784 4.32 4.512 10.56 4.512 16.512v8.352c0 5.856-1.728 12.192-4.512 16.512-2.016 3.072-5.184 4.704-8.928 4.704-3.84 0-7.008-1.632-9.024-4.704-2.784-4.32-4.512-10.656-4.512-16.512zM1040.206 173.419c0-15.168-7.488-25.536-18.432-25.536-11.04 0-18.528 10.368-18.528 25.536v9.408c0 15.264 7.488 25.632 18.528 25.632 10.944 0 18.432-10.368 18.432-25.632zm-31.968.576c0-5.952 1.728-12.192 4.512-16.512 2.016-3.072 5.088-4.704 9.024-4.704 3.84 0 6.912 1.632 8.928 4.704 2.784 4.32 4.512 10.56 4.512 16.512v8.352c0 5.856-1.728 12.192-4.512 16.512-2.016 3.072-5.184 4.704-8.928 4.704-3.84 0-7.008-1.632-9.024-4.704-2.784-4.32-4.512-10.656-4.512-16.512zM1091.966 173.419c0-15.168-7.488-25.536-18.432-25.536-11.04 0-18.528 10.368-18.528 25.536v9.408c0 15.264 7.488 25.632 18.528 25.632 10.944 0 18.432-10.368 18.432-25.632zm-31.968.576c0-5.952 1.728-12.192 4.512-16.512 2.016-3.072 5.088-4.704 9.024-4.704 3.84 0 6.912 1.632 8.928 4.704 2.784 4.32 4.512 10.56 4.512 16.512v8.352c0 5.856-1.728 12.192-4.512 16.512-2.016 3.072-5.184 4.704-8.928 4.704-3.84 0-7.008-1.632-9.024-4.704-2.784-4.32-4.512-10.656-4.512-16.512zM1143.726 173.419c0-15.168-7.488-25.536-18.432-25.536-11.04 0-18.528 10.368-18.528 25.536v9.408c0 15.264 7.488 25.632 18.528 25.632 10.944 0 18.432-10.368 18.432-25.632zm-31.968.576c0-5.952 1.728-12.192 4.512-16.512 2.016-3.072 5.088-4.704 9.024-4.704 3.84 0 6.912 1.632 8.928 4.704 2.784 4.32 4.512 10.56 4.512 16.512v8.352c0 5.856-1.728 12.192-4.512 16.512-2.016 3.072-5.184 4.704-8.928 4.704-3.84 0-7.008-1.632-9.024-4.704-2.784-4.32-4.512-10.656-4.512-16.512zM1195.486 173.419c0-15.168-7.488-25.536-18.432-25.536-11.04 0-18.528 10.368-18.528 25.536v9.408c0 15.264 7.488 25.632 18.528 25.632 10.944 0 18.432-10.368 18.432-25.632zm-31.968.576c0-5.952 1.728-12.192 4.512-16.512 2.016-3.072 5.088-4.704 9.024-4.704 3.84 0 6.912 1.632 8.928 4.704 2.784 4.32 4.512 10.56 4.512 16.512v8.352c0 5.856-1.728 12.192-4.512 16.512-2.016 3.072-5.184 4.704-8.928 4.704-3.84 0-7.008-1.632-9.024-4.704-2.784-4.32-4.512-10.656-4.512-16.512zM1231.31 148.17l-18.432 5.76c-1.824.577-2.4 1.153-2.4 2.497 0 1.248 1.152 2.4 2.304 2.4.192 0 1.152-.192 1.536-.288l12-3.744v47.328h-12.864c-2.112 0-3.168.864-3.168 2.4 0 1.632 1.152 2.496 3.168 2.496h30.72c2.016 0 3.072-.864 3.072-2.496 0-1.536-1.056-2.4-3.072-2.4h-12.864z"/></g><g aria-label="10001111101" transform="matrix(.84033 0 0 .84033 -166.106 702.378)" style="font-size:96px;line-height:0;font-family:'Nimbus Mono PS';-inkscape-font-specification:'Nimbus Mono PS';letter-spacing:-5.84px;white-space:pre;shape-inside:url(#j);display:inline;fill:#183f3f;stroke-width:18.8976;stroke-linecap:square;stroke-linejoin:bevel"><path d="m506.67 148.17-18.433 5.76c-1.824.577-2.4 1.153-2.4 2.497 0 1.248 1.152 2.4 2.304 2.4.192 0 1.152-.192 1.536-.288l12-3.744v47.328h-12.864c-2.112 0-3.168.864-3.168 2.4 0 1.632 1.152 2.496 3.168 2.496h30.72c2.016 0 3.072-.864 3.072-2.496 0-1.536-1.056-2.4-3.072-2.4H506.67zM574.365 173.419c0-15.168-7.488-25.536-18.432-25.536-11.04 0-18.528 10.368-18.528 25.536v9.408c0 15.264 7.488 25.632 18.528 25.632 10.944 0 18.432-10.368 18.432-25.632zm-31.968.576c0-5.952 1.728-12.192 4.512-16.512 2.016-3.072 5.088-4.704 9.024-4.704 3.84 0 6.912 1.632 8.928 4.704 2.784 4.32 4.512 10.56 4.512 16.512v8.352c0 5.856-1.728 12.192-4.512 16.512-2.016 3.072-5.184 4.704-8.928 4.704-3.84 0-7.008-1.632-9.024-4.704-2.784-4.32-4.512-10.656-4.512-16.512zM626.125 173.419c0-15.168-7.488-25.536-18.432-25.536-11.04 0-18.528 10.368-18.528 25.536v9.408c0 15.264 7.488 25.632 18.528 25.632 10.944 0 18.432-10.368 18.432-25.632zm-31.968.576c0-5.952 1.728-12.192 4.512-16.512 2.016-3.072 5.088-4.704 9.024-4.704 3.84 0 6.912 1.632 8.928 4.704 2.784 4.32 4.512 10.56 4.512 16.512v8.352c0 5.856-1.728 12.192-4.512 16.512-2.016 3.072-5.184 4.704-8.928 4.704-3.84 0-7.008-1.632-9.024-4.704-2.784-4.32-4.512-10.656-4.512-16.512zM677.885 173.419c0-15.168-7.488-25.536-18.432-25.536-11.04 0-18.528 10.368-18.528 25.536v9.408c0 15.264 7.488 25.632 18.528 25.632 10.944 0 18.432-10.368 18.432-25.632zm-31.968.576c0-5.952 1.728-12.192 4.512-16.512 2.016-3.072 5.088-4.704 9.024-4.704 3.84 0 6.912 1.632 8.928 4.704 2.784 4.32 4.512 10.56 4.512 16.512v8.352c0 5.856-1.728 12.192-4.512 16.512-2.016 3.072-5.184 4.704-8.928 4.704-3.84 0-7.008-1.632-9.024-4.704-2.784-4.32-4.512-10.656-4.512-16.512zM713.71 148.17l-18.433 5.76c-1.824.577-2.4 1.153-2.4 2.497 0 1.248 1.152 2.4 2.304 2.4.192 0 1.152-.192 1.536-.288l12-3.744v47.328h-12.864c-2.112 0-3.168.864-3.168 2.4 0 1.632 1.152 2.496 3.168 2.496h30.72c2.016 0 3.072-.864 3.072-2.496 0-1.536-1.056-2.4-3.072-2.4H713.71zM765.47 148.17l-18.432 5.76c-1.824.577-2.4 1.153-2.4 2.497 0 1.248 1.152 2.4 2.304 2.4.192 0 1.152-.192 1.536-.288l12-3.744v47.328h-12.864c-2.112 0-3.168.864-3.168 2.4 0 1.632 1.152 2.496 3.168 2.496h30.72c2.016 0 3.072-.864 3.072-2.496 0-1.536-1.056-2.4-3.072-2.4H765.47zM817.23 148.17l-18.432 5.76c-1.824.577-2.4 1.153-2.4 2.497 0 1.248 1.152 2.4 2.304 2.4.192 0 1.152-.192 1.536-.288l12-3.744v47.328h-12.864c-2.112 0-3.168.864-3.168 2.4 0 1.632 1.152 2.496 3.168 2.496h30.72c2.016 0 3.072-.864 3.072-2.496 0-1.536-1.056-2.4-3.072-2.4H817.23zM868.99 148.17l-18.432 5.76c-1.824.577-2.4 1.153-2.4 2.497 0 1.248 1.152 2.4 2.304 2.4.192 0 1.152-.192 1.536-.288l12-3.744v47.328h-12.864c-2.112 0-3.168.864-3.168 2.4 0 1.632 1.152 2.496 3.168 2.496h30.72c2.016 0 3.072-.864 3.072-2.496 0-1.536-1.056-2.4-3.072-2.4H868.99zM920.75 148.17l-18.432 5.76c-1.824.577-2.4 1.153-2.4 2.497 0 1.248 1.152 2.4 2.304 2.4.192 0 1.152-.192 1.536-.288l12-3.744v47.328h-12.864c-2.112 0-3.168.864-3.168 2.4 0 1.632 1.152 2.496 3.168 2.496h30.72c2.016 0 3.072-.864 3.072-2.496 0-1.536-1.056-2.4-3.072-2.4H920.75zM988.446 173.419c0-15.168-7.488-25.536-18.432-25.536-11.04 0-18.528 10.368-18.528 25.536v9.408c0 15.264 7.488 25.632 18.528 25.632 10.944 0 18.432-10.368 18.432-25.632zm-31.968.576c0-5.952 1.728-12.192 4.512-16.512 2.016-3.072 5.088-4.704 9.024-4.704 3.84 0 6.912 1.632 8.928 4.704 2.784 4.32 4.512 10.56 4.512 16.512v8.352c0 5.856-1.728 12.192-4.512 16.512-2.016 3.072-5.184 4.704-8.928 4.704-3.84 0-7.008-1.632-9.024-4.704-2.784-4.32-4.512-10.656-4.512-16.512zM1024.27 148.17l-18.432 5.76c-1.824.577-2.4 1.153-2.4 2.497 0 1.248 1.152 2.4 2.304 2.4.192 0 1.152-.192 1.536-.288l12-3.744v47.328h-12.864c-2.112 0-3.168.864-3.168 2.4 0 1.632 1.152 2.496 3.168 2.496h30.72c2.016 0 3.072-.864 3.072-2.496 0-1.536-1.056-2.4-3.072-2.4h-12.864z"/></g></g><path style="display:inline;fill:#000;fill-opacity:1;stroke:#cfd8dc;stroke-width:12.27;stroke-linecap:square;stroke-linejoin:bevel;stroke-dasharray:none;stroke-opacity:1" d="M500 7.935A492.065 492.065 0 0 0 7.935 500 492.065 492.065 0 0 0 500 992.065 492.065 492.065 0 0 0 992.065 500 492.065 492.065 0 0 0 500 7.935zm0 85.398A406.667 406.667 0 0 1 906.667 500 406.667 406.667 0 0 1 500 906.667 406.667 406.667 0 0 1 93.333 500 406.667 406.667 0 0 1 500 93.333z"/><g aria-label="HackademINT" style="font-size:74.6667px;-inkscape-font-specification:sans-serif;fill:#fff;stroke-width:5.29134;paint-order:fill markers stroke"><path d="m917.88 550.328.765-11.249 22.944 1.56 1.434-21.081-22.944-1.56.765-11.25 53.19 3.619-.766 11.248-20.858-1.419-1.434 21.082 20.858 1.42-.765 11.248zM953.65 587.03q-1.548 8.066-5.884 11.644-4.276 3.665-11.463 2.286l-26.691-5.12 1.463-7.627 5.834-1.085.056-.294q-2.734-3.185-3.652-6.327-.918-3.14.039-8.127 1.027-5.353 4.782-8.282 3.828-2.915 10.281-1.677 6.38 1.224 8.528 6.274 2.222 5.064.8 14.066l-1.117 7.009 1.76.337q3.153.605 4.943-.8 1.776-1.332 2.339-4.265.562-2.933.217-5.888-.272-2.942-.984-5.967l8.096-2.173q1.067 3.55 1.275 7.62.193 4.142-.623 8.396zm-22.735-2.765q.867-5.308-.5-7.7-1.365-2.39-4.225-2.939-2.494-.478-3.875.778-1.308 1.27-1.758 3.616-.675 3.52.914 6.333 1.662 2.828 5.475 3.56l3.3.633zM901.29 622.592q2.594-8.732 8.815-12.102 6.27-3.278 16.649-.194 7.157 2.127 10.943 5.9 3.786 3.774 4.657 8.707.85 5.004-.83 10.658-1.192 4.008-2.851 6.709-1.681 2.772-3.414 4.672l-7.295-5.596q1.746-2.207 3.05-4.234 1.282-1.956 1.92-4.103 2.468-8.303-9.342-11.812-5.869-1.744-9.298-.427-3.451 1.39-4.62 5.326-1 3.364-.907 6.196.164 2.853 1.016 5.754l-9.09-2.7q-.851-2.902-.687-5.813.07-2.861 1.283-6.941zM920.202 665.81q-2.14-.878-4.197-1.965-2.016-.989-4.072-2.075l-.056.138q1.025 1.632 2.022 3.333 1.065 1.729 1.867 3.51l7.128 15.276-4.764 11.604-10.217-21.71-27.865 7.125 4.877-11.88 19.717-4.578-1.708-5.867-11.742-4.82 4.225-10.292 52.495 21.551-4.225 10.292zM905.756 720.756q-3.925 7.215-9.143 9.306-5.188 2.193-11.615-1.304l-23.875-12.989 3.711-6.82 5.889.738.142-.263q-1.637-3.865-1.557-7.137.08-3.272 2.506-7.732 2.605-4.788 7.073-6.437 4.533-1.614 10.304 1.526 5.707 3.104 6.22 8.568.577 5.5-3.514 13.644l-3.193 6.338 1.575.857q2.82 1.534 4.952.74 2.097-.73 3.524-3.354 1.428-2.623 1.997-5.544.634-2.885.875-5.984l8.373.39q-.062 3.707-1.1 7.647-1.074 4.006-3.144 7.81zm-20.82-9.542q2.439-4.793 1.863-7.486-.575-2.693-3.133-4.085-2.23-1.213-3.927-.436-1.632.812-2.774 2.91-1.712 3.149-1.054 6.313.725 3.199 4.136 5.054l2.951 1.606zM847.153 735.714q3.882-5.576 10.707-6.102 6.844-.421 15.362 5.509 8.58 5.972 10.517 12.598 1.938 6.626-2.072 12.386-2.517 3.616-5.548 4.963-3.03 1.347-6.052 1.245l-.214.307q1.109.498 3.118 1.533 2.07 1.077 4.031 2.442l10.724 7.466-6.356 9.13-46.573-32.421 4.863-6.986 5.588 1.252.256-.368q-1.145-2.799-1.037-6.09.169-3.248 2.686-6.864zm5.074 8.263q-2.645 3.8-1.505 6.867 1.2 3.11 5.631 6.286l.98.683q4.903 3.413 8.543 3.672 3.598.321 6.413-3.723 2.09-3.003.65-6.553-1.379-3.507-6.281-6.92-4.903-3.413-8.61-3.446-3.645.009-5.821 3.134zM847.805 803.865q-5.543 6.36-12.44 6.887-6.84.575-13.538-5.263l-4.053-3.533 17.269-19.813q-3.645-2.978-7.388-2.774-3.792.26-6.883 3.806-2.6 2.984-4.147 5.894-1.49 2.96-2.509 6.629l-6.473-5.642q.837-3.232 2.538-6.207 1.596-2.967 4.686-6.513 4.023-4.616 8.803-6.69 4.835-2.026 10.091-1.01 5.256 1.015 10.547 5.627 5.404 4.71 7.38 9.601 1.983 4.998.94 9.832-1.045 4.835-4.823 9.169zm-6.015-5.144q2.11-2.42 1.956-5.426-.202-2.95-3.278-6.126l-10.253 11.764q2.863 2.397 5.89 2.56 3.085.211 5.685-2.772zM789.663 860.122q-5.247 4.549-10.247 4.14-5.006-.304-10.142-6.228l-17.412-20.084 8.406-7.288 15.602 17.997q5.772 6.657 10.398 2.646 3.329-2.885 2.685-6.478-.644-3.592-4.508-8.049l-13.401-15.458 8.406-7.288 15.602 17.997q5.772 6.658 10.398 2.647 3.498-3.033 2.553-6.858-.952-3.72-5.208-8.628l-12.57-14.5 8.407-7.287 26.705 30.803-6.432 5.576-4.552-2.97-.451.39q.644 3.593-.853 6.768-1.553 3.224-4.205 5.523-3.385 2.934-6.732 3.86-3.3.983-6.546-.255l-.733.636q.644 3.593-.91 6.817-1.609 3.272-4.26 5.571zM724.648 855.471l20.132-13.55 3.585 5.327-3.721 6.105 19.262 28.617 7.057-1.15 3.585 5.327-20.13 13.55-3.586-5.326 3.721-6.105-19.262-28.617-7.057 1.15zM675.322 882.752 688 876.06l39.358 24.817.264-.139-3.82-6.596q-1.975-3.263-3.885-6.561l-11.711-22.187 8.914-4.705 24.886 47.147-12.612 6.657-39.117-24.522-.198.104q1.809 3.267 3.649 6.433l3.68 6.332 11.78 22.319-8.98 4.74zM643.61 895.077l10.544-3.993 15.551 41.057 13.546-5.13 3.333 8.797-37.636 14.256-3.333-8.798 13.546-5.131z" style="font-weight:700;-inkscape-font-specification:'sans-serif Bold'" transform="rotate(-125.416 498.388 500.093)"/></g><g aria-label="moins tu dors, plus t'es forte" style="font-weight:700;font-size:69.3333px;-inkscape-font-specification:'sans-serif Bold';white-space:pre;display:inline;opacity:1;fill:#cb490b;stroke-width:5.29134;paint-order:fill markers stroke"><path d="m500.381 59.082-8.996.552-20.893-40.465-15.854 42.722-8.996.552-3.188-51.902 8.997-.553 1.925 31.35L465.36 9.133l8.996-.552 15.761 30.43-1.92-31.28 8.996-.553zM439.58 27.385l3.302 19.833q.546 3.283.136 6.304-.411 3.02-1.905 5.87-1.482 2.917-4.8 4.946-3.374 2.108-8.298 2.928-4.924.82-8.73-.093-3.865-.832-6.28-3.101-2.406-2.2-3.773-4.925-1.367-2.724-1.914-6.007l-3.302-19.833q-.547-3.283-.136-6.304.41-3.02 1.961-5.95 1.562-2.86 4.936-4.968 3.318-2.029 8.242-2.849 4.924-.82 8.788.013 3.807.913 6.143 3.124 2.348 2.28 3.715 5.005 1.368 2.724 1.914 6.007zm-5.703 20.63-3.075-18.466q-1.708-10.259-10.53-8.79-8.96 1.492-7.252 11.751l3.075 18.466q1.708 10.259 10.668 8.767 8.822-1.47 7.114-11.728zM407.476 69.746l-8.792 1.985-11.454-50.723 8.792-1.985zM373.077 24.445l8.652-2.527L396.31 71.83l-9.317 2.722-31.656-28.745 10.227 35.006-8.652 2.527-14.582-49.914 9.318-2.721 31.675 28.812zM342.836 74.801q-1.06-2.712-3.6-3.878-2.514-1.102-5.605-1.011-3.13.18-6.8.125-3.643.009-6.936-.417-3.332-.336-6.3-2.6-2.97-2.265-4.634-6.527-.934-2.39-.977-4.978-.018-2.523.958-5.36 1-2.774 3.944-5.338 2.918-2.629 7.503-4.42 4.65-1.816 8.628-1.733 3.913.11 6.745 1.832 2.831 1.722 4.78 4.236 1.95 2.513 3.262 5.872l-8.395 3.28q-3.784-9.688-12.245-6.383-4.714 1.842-5.765 4.485-1.052 2.644-.043 5.228 1.06 2.712 3.575 3.814 2.54 1.166 5.67.986 3.09-.091 6.734-.1 3.67.055 7.001.391 3.293.426 6.262 2.69 2.968 2.264 4.633 6.527.934 2.39 1.081 4.862.083 2.499-.764 5.286-.846 2.787-3.66 5.3-2.854 2.604-7.44 4.395-4.65 1.817-8.562 1.708-3.978-.084-6.81-1.806-2.831-1.723-4.78-4.236-1.95-2.514-3.262-5.872l8.395-3.28q3.784 9.687 12.245 6.383 4.326-1.69 5.223-4.349.923-2.593-.061-5.112zM304.165 105.416l-34.577 19.138-3.861-6.976 13.345-7.387-21.32-38.52 7.885-4.364 21.321 38.52 13.345-7.387z" style="font-weight:400;font-family:Neuromancer;-inkscape-font-specification:Neuromancer" transform="rotate(-115.141 498.034 484.43) scale(.95458)"/><path d="m247.384 139.548-7.486 5.02-20.082-29.941q-1.854-2.764-2.728-5.685-.873-2.92-.67-6.228.24-3.25 2.442-6.564 2.183-3.218 6.33-5.998 4.145-2.781 8.008-3.619 3.844-.741 6.885.308 3.08 1.107 5.45 3.023 2.371 1.916 4.225 4.68l20.082 29.943-7.485 5.02-19.697-29.366q-5.793-8.637-13.22-3.655-7.544 5.059-1.75 13.696zM171.23 133.885l16.026-14.322 34.65 38.774-16.027 14.322q-3.93 3.511-8.355 4.49-4.379 1.03-8.528-.283-4.149-1.313-7.927-3.98-3.784-2.57-7.249-6.447-3.465-3.878-5.64-7.977-2.182-4.002-3.022-8.272-.84-4.27.628-8.558 1.515-4.236 5.444-7.747zm29.853 32.367 8.789-7.854-24.024-26.884-8.788 7.854q-4.447 3.973-3.229 9.394 1.166 5.467 6.71 11.67 5.544 6.205 10.846 7.976 5.25 1.817 9.696-2.156zM164.74 161.453l14.678 13.742q2.43 2.274 3.939 4.922 1.51 2.648 2.056 5.819.596 3.218-.805 6.845-1.398 3.725-4.81 7.369-3.411 3.644-6.989 5.233-3.574 1.688-6.871 1.355-3.247-.285-5.99-1.617-2.741-1.333-5.17-3.607L140.1 187.772q-2.43-2.274-3.94-4.922-1.51-2.649-2.059-5.917-.498-3.221.9-6.946 1.4-3.627 4.812-7.271 3.412-3.644 6.986-5.332 3.578-1.59 6.777-1.253 3.25.383 5.992 1.715t5.172 3.607zm8.012 19.848-13.666-12.794q-7.592-7.108-13.705-.579-6.207 6.63 1.385 13.738l13.665 12.794q7.593 7.108 13.8.477 6.113-6.529-1.48-13.636zM146.603 224.587l7.271-9.277-15.28-11.976-7.27 9.277q-2.994 3.82-2.18 7.277.826 3.555 4.046 6.078t6.814 2.433q3.606.007 6.6-3.812zm-40.083-20.228 20.538.77 5.26-6.713-13.096-10.264 5.56-7.095 40.928 32.077-13.259 16.917q-2.865 3.656-6.356 5.413-3.534 1.81-6.86 1.67-3.368-.085-6.313-1.16-2.891-1.032-5.292-2.914-2.729-2.138-4.61-5.021-1.825-2.841-2.364-6.875-.58-3.979 1.015-7.925l-21.481-.804zM125.038 245.246q-2.439-1.592-5.183-1.066-2.687.565-5.15 2.434-2.443 1.966-5.461 4.053-2.96 2.124-5.888 3.69-2.907 1.663-6.639 1.545-3.731-.118-7.563-2.62-2.148-1.402-3.687-3.483-1.481-2.044-2.336-4.92-.796-2.838.11-6.635.847-3.835 3.538-7.957 2.73-4.18 6.016-6.423 3.248-2.185 6.553-2.429 3.305-.243 6.353.67 3.047.913 6.066 2.884l-4.928 7.547q-8.708-5.685-13.674 1.92-2.767 4.238-2.086 7 .68 2.763 3.002 4.28 2.439 1.591 5.126 1.027 2.744-.526 5.187-2.492 2.463-1.87 5.423-3.994 3.019-2.087 5.926-3.75 2.927-1.566 6.659-1.448 3.732.118 7.563 2.62 2.148 1.402 3.705 3.33 1.52 1.985 2.45 4.745.93 2.76.1 6.442-.81 3.776-3.501 7.898-2.73 4.18-5.977 6.365-3.287 2.243-6.592 2.487-3.305.243-6.352-.67t-6.066-2.884l4.927-7.547q8.708 5.685 13.674-1.92 2.54-3.89 1.725-6.574-.756-2.647-3.02-4.125zM78.067 263.338l-10.254-12.77 2.073-3.607 11.636 10.366zM53.135 293.737l3.606-8.26 47.656 20.806-8.6 19.698q-1.858 4.257-4.798 6.832-2.968 2.638-6.223 3.335-3.282.761-6.403.458-3.057-.276-5.853-1.497-2.796-1.22-5.14-3.303-2.28-2.054-3.953-4.979-1.702-2.861-1.784-6.831-.11-3.906 1.748-8.164l4.994-11.437zm35.633 28.418 4.716-10.802-17.792-7.768-4.716 10.802q-1.942 4.448-.288 7.591 1.69 3.234 5.439 4.871 3.749 1.637 7.206.65 3.493-.896 5.435-5.344zM88.67 342.794l-2.915 8.53-41.661-14.236-7.735 22.635-7.545-2.578 10.649-31.164zM71.31 400.173l-2.223 8.735-34.94-8.896q-3.224-.82-5.824-2.413-2.6-1.591-4.657-4.19-1.99-2.581-2.561-6.519-.521-3.853.71-8.69 1.232-4.838 3.55-8.04 2.367-3.118 5.332-4.366 3.032-1.231 6.077-1.386 3.044-.155 6.27.666l34.938 8.895-2.224 8.735-34.267-8.725q-10.078-2.565-12.285 6.102-2.24 8.802 7.838 11.368zM54.376 416.84q-2.872-.482-5.176 1.1-2.236 1.594-3.743 4.294-1.45 2.78-3.38 5.901-1.86 3.133-3.915 5.74-1.997 2.689-5.464 4.076-3.466 1.387-7.98.63-2.53-.424-4.773-1.714-2.176-1.279-4.112-3.572-1.867-2.281-2.558-6.123-.76-3.853.054-8.708.826-4.924 2.938-8.295 2.1-3.304 5.031-4.851 2.93-1.547 6.089-1.932 3.157-.384 6.713.212l-1.49 8.89q-10.257-1.72-11.76 7.237-.836 4.992.894 7.25 1.73 2.259 4.465 2.717 2.872.482 5.108-1.112 2.304-1.582 3.754-4.362 1.508-2.7 3.369-5.832 1.929-3.121 3.926-5.81 2.055-2.608 5.521-3.995 3.467-1.387 7.98-.63 2.53.424 4.728 1.566 2.188 1.21 4.146 3.367 1.958 2.156 2.673 5.861.771 3.785-.043 8.64-.825 4.923-2.926 8.227-2.112 3.371-5.043 4.919-2.93 1.547-6.089 1.931-3.157.385-6.713-.211l1.49-8.89q10.257 1.72 11.76-7.237.768-4.582-1.054-6.715-1.753-2.122-4.42-2.569zM60.825 465.736l-1.302 39.499-7.97-.263.503-15.245-44.002-1.45.297-9.01 44.002 1.452.503-15.245zM59.957 505.855l.167 7.625-13.863.304-.167-7.624zM59.92 515.73l2.38 32.848-7.953.576-1.728-23.857-13.83 1.001L40.2 545.8l-7.953.576-1.412-19.5L16.66 527.9l1.728 23.858-7.953.576-2.379-32.848zM50.701 560.223q-2.878.44-4.573 2.663-1.626 2.212-2.214 5.247-.51 3.094-1.367 6.662-.79 3.557-1.926 6.677-1.058 3.177-3.917 5.578-2.86 2.4-7.383 3.092-2.536.387-5.071-.138-2.467-.535-5.022-2.108-2.486-1.584-4.343-5.018-1.926-3.423-2.67-8.29-.753-4.934.2-8.797.963-3.794 3.264-6.18 2.301-2.385 5.18-3.737 2.88-1.351 6.444-1.896l1.361 8.91q-10.28 1.57-8.909 10.55.764 5.002 3.114 6.607 2.349 1.605 5.09 1.187 2.88-.44 4.505-2.652 1.695-2.223 2.204-5.317.588-3.035 1.377-6.593.858-3.568 1.916-6.745 1.136-3.12 3.996-5.52 2.86-2.4 7.383-3.092 2.536-.387 4.981.01 2.456.467 4.99 1.904 2.534 1.436 4.37 4.733 1.916 3.354 2.66 8.22.753 4.935-.21 8.73-.953 3.862-3.254 6.248-2.301 2.385-5.18 3.737-2.88 1.352-6.444 1.896l-1.361-8.91q10.28-1.57 8.909-10.549-.702-4.592-3.098-6.05-2.329-1.467-5.002-1.059zM72.634 606.194l9.108 31.65-7.662 2.204-6.615-22.987-13.326 3.835 5.407 18.79-7.663 2.205-5.407-18.79-21.321 6.136-2.493-8.662zM48.178 651.232l18.812-7.1q3.113-1.174 6.156-1.359 3.043-.185 6.128.726 3.15.886 5.786 3.745 2.724 2.9 4.487 7.57 1.762 4.67 1.608 8.582-.065 3.952-1.82 6.763-1.69 2.787-4.096 4.659-2.406 1.871-5.52 3.046l-18.812 7.1q-3.113 1.174-6.156 1.36-3.043.184-6.218-.767-3.11-.975-5.834-3.875-2.635-2.859-4.398-7.53-1.762-4.67-1.697-8.622.154-3.912 1.868-6.634 1.78-2.746 4.186-4.618 2.406-1.871 5.52-3.046zm21.345 1.578-17.514 6.61q-9.73 3.672-6.572 12.04 3.207 8.498 12.937 4.826l17.514-6.61q9.73-3.672 6.523-12.17-3.157-8.367-12.888-4.696zM96.809 695.39l-5.111-10.62-17.493 8.418 5.111 10.62q2.105 4.374 5.566 5.17 3.553.83 7.24-.944 3.685-1.774 5.192-5.039 1.6-3.231-.505-7.605zm-35.853 27.027 9.762-18.087-3.698-7.684-14.994 7.215-3.908-8.121 46.856-22.55 9.32 19.367q2.015 4.186 2.049 8.094.064 3.97-1.53 6.892-1.566 2.985-3.831 5.152-2.203 2.138-4.952 3.46-3.124 1.504-6.541 1.917-3.355.384-7.212-.915-3.826-1.236-6.662-4.411l-10.21 18.917zM111.76 708.13l20.214 33.958-6.85 4.079-7.803-13.107-37.831 22.52-4.61-7.745 37.83-22.52-7.802-13.107zM111.346 760.018q2.119-1.446 3.681-1.002 1.563.445 2.54 1.877 1.016 1.489.86 3.106-.116 1.674-2.235 3.12-2.062 1.407-3.72.944-1.62-.406-2.637-1.895-.977-1.431-.764-3.087.213-1.657 2.275-3.063zM141.466 755.68l20.09 26.096-6.317 4.864-14.592-18.953-10.988 8.459 11.928 15.492-6.318 4.864-11.927-15.492-11.263 8.67 14.593 18.954-6.318 4.864-20.091-26.095z" style="font-weight:400;font-family:Neuromancer;-inkscape-font-specification:Neuromancer" transform="rotate(-115.141 498.034 484.43) scale(.95458)"/></g></g><g class="UnoptimicedTransforms" style="display:inline"><g style="display:inline"><path style="display:inline;opacity:1;fill:#cb490b;fill-opacity:1;stroke:#000;stroke-width:5.9886;stroke-linecap:butt;stroke-linejoin:bevel;stroke-dasharray:none;stroke-opacity:1" d="m500 791.83 182.227-.108s23.613.75 35.487-2.24c11.874-2.99 29.517-11.655 34.997-16.802 5.48-5.148 10.876-10.057 13.088-15.883 2.212-5.825 15.609-73.988 15.898-79.426.29-5.437-.028-25.826-.408-31.729-.382-5.902-6.967-43.66-10.768-55.287-3.801-11.628-9.14-30.297-19.49-50.115-10.35-19.818-30.139-45.83-49.423-68.06-19.284-22.231-37.874-40.658-37.874-40.658l-82.51-1.482-1.198-4.292-80.026 1.35m0 364.733-182.227-.11s-23.613.75-35.487-2.239c-11.874-2.99-29.517-11.655-34.997-16.802-5.48-5.148-10.876-10.057-13.088-15.883-2.212-5.825-15.609-73.988-15.898-79.426-.29-5.437.028-25.826.408-31.729.382-5.902 6.967-43.66 10.768-55.287 3.801-11.628 9.14-30.297 19.49-50.115 10.35-19.818 30.139-45.83 49.423-68.06 19.284-22.231 37.874-40.658 37.874-40.658l82.51-1.482 1.198-4.292 80.026 1.35"/><path style="display:inline;opacity:1;fill:#cb490b;fill-opacity:1;stroke:#000;stroke-width:5.9878;stroke-linecap:butt;stroke-linejoin:bevel;stroke-dasharray:none;stroke-opacity:1" d="M500 584.098c10.927 0 13.586-11.228 15.287-15.287 1.7-4.059 2.888-6.552 4.81-13.283 6.09-21.322 8.738-32.573 15.04-40.928 6.301-8.355 16.85-23.205 29.822-29.685 12.971-6.48 37.849-12.237 47.682-13.678 9.834-1.442 16.909-1.764 27.878-7.835 10.97-6.071 18.337-11.97 22.032-17.082 3.694-5.112 14.311-22.062 15.245-46.786.933-24.723-.93-42.422-6.184-56.687-5.253-14.265-20.222-65.051-54.854-95.748-34.63-30.697-63.777-50.229-82.933-56.751-11.82-3.958-18.722-7.983-33.825-8.024m0 401.774c-10.927 0-13.586-11.228-15.287-15.287-1.701-4.059-2.888-6.552-4.81-13.283-6.09-21.322-8.738-32.573-15.04-40.928-6.301-8.355-16.85-23.205-29.822-29.685-12.971-6.48-37.849-12.237-47.682-13.678-9.834-1.442-16.909-1.764-27.878-7.835-10.97-6.071-18.337-11.97-22.032-17.082-3.694-5.112-14.311-22.062-15.245-46.786-.933-24.723.93-42.422 6.184-56.687 5.253-14.265 20.222-65.051 54.854-95.748 34.63-30.697 63.777-50.229 82.933-56.751 11.82-3.958 18.722-7.983 33.825-8.024"/><path style="display:inline;fill:#822b01;fill-opacity:1;stroke:#000;stroke-width:6.02438;stroke-linecap:square;stroke-linejoin:bevel;stroke-dasharray:none;stroke-opacity:1" d="m500 587.211 7.214-.024s4.653-4.857 8.362-14.404c3.708-9.547 3.436-6.554 5.262-13.609 1.826-7.054 7.426-33.417 13.688-41.928 6.263-8.51 16.213-23.336 29.103-29.937 12.89-6.6 37.612-12.465 47.384-13.933 9.772-1.469 16.51-3.672 27.41-9.856 10.9-6.184 16.076-18.396 15.206-31.07-.87-12.674-2.837-21.097-6.04-30.593-3.501-10.379-14.568-37.226-23.704-52.197-8.337-13.662-27.283-31.813-42.821-45.2-15.495-13.351-45.485-26.293-57.484-27.965-8.52-.992-14.967-2.385-23.58-2.385m0 313.101-7.214-.024s-4.653-4.857-8.362-14.404c-3.708-9.547-3.436-6.554-5.262-13.609-1.826-7.054-7.426-33.417-13.688-41.928-6.263-8.51-16.213-23.336-29.103-29.937-12.89-6.6-37.612-12.465-47.384-13.933-9.772-1.469-16.51-3.672-27.41-9.856-10.9-6.184-16.076-18.396-15.206-31.07.87-12.674 2.837-21.097 6.04-30.593 3.501-10.379 14.568-37.226 23.704-52.197 8.337-13.662 27.283-31.813 42.821-45.2 15.495-13.351 45.485-26.293 57.484-27.965 8.52-.992 14.967-2.385 23.58-2.385"/><path style="display:inline;fill:#000;fill-opacity:1;stroke:#000;stroke-width:5.92121;stroke-linecap:square;stroke-linejoin:bevel;stroke-dasharray:none;stroke-opacity:1" d="M500.383 275.39c-.126 0-.256.004-.383.004v303.41h7.147s4.63-4.716 8.321-13.984c3.69-9.268 3.42-6.362 5.238-13.21 1.817-6.849 7.172-32.882 11.41-42.323 4.771-10.632 14.866-24.95 24.448-35.617 13.662-15.208 26.115-20.628 32.212-27.057 6.763-7.132 13.662-13.235 21.043-25.832 7.38-12.598 9.274-26.356 10.838-41.535 1.564-15.18-4.225-37.4-14.25-50.3-9.62-12.38-9.881-11.49-25.343-24.487-15.419-12.96-45.69-25.645-57.63-27.268-11.941-1.623-15.558-1.802-23.05-1.802zm-.766 0c.126 0 .256.004.383.004v303.41h-7.147s-4.63-4.716-8.321-13.984c-3.69-9.268-3.42-6.362-5.238-13.21-1.817-6.849-7.172-32.882-11.41-42.323-4.771-10.632-14.866-24.95-24.448-35.617-13.662-15.208-26.115-20.628-32.212-27.057-6.763-7.132-13.662-13.235-21.043-25.832-7.38-12.598-9.274-26.356-10.838-41.535-1.564-15.18 4.225-37.4 14.25-50.3 9.62-12.38 9.881-11.49 25.343-24.487 15.419-12.96 45.69-25.645 57.63-27.268 11.941-1.623 15.558-1.802 23.05-1.802z"/><g style="display:inline"><path style="display:inline;opacity:1;fill:#000;fill-opacity:1;stroke:none;stroke-width:5.291;stroke-dasharray:none;stroke-opacity:1;paint-order:fill markers stroke" d="M708.67 652.764s13.246 5.389 22.027 15.29c8.78 9.9 10.883 24.107 11.357 27.948.237 1.921 1.118 8.808 1.223 16.068.106 7.26-.565 14.893-.14 15.364.851.943 1.86.649 2.252-.032.393-.68 3.127-4.383 3.468-12.58.34-8.198.266-13.918-1.102-20.427-1.367-6.509-3.1-11.356-3.196-12.069-.095-.712-.074-1.52.83-.952.905.57 5.029 7.381 5.98 10.974.95 3.592 2.143 9.304 2.59 11.697.447 2.392.796 6.696 1.532 6.7.736.003 2.123-1.819 1.889-9.4-.235-7.58-1.031-14.764-6.35-21.237-5.318-6.472-21.963-22.656-27.162-25.264-5.2-2.608-11.055-5.012-14.446-5.573-3.39-.562-.751 3.493-.751 3.493zm-417.34 0s-13.246 5.389-22.027 15.29c-8.78 9.9-10.883 24.107-11.357 27.948-.237 1.921-1.118 8.808-1.223 16.068-.106 7.26.565 14.893.14 15.364-.851.943-1.86.649-2.252-.032-.393-.68-3.127-4.383-3.468-12.58-.34-8.198-.266-13.918 1.102-20.427 1.367-6.509 3.1-11.356 3.196-12.069.095-.712.074-1.52-.83-.952-.905.57-5.029 7.381-5.98 10.974-.95 3.592-2.143 9.304-2.59 11.697-.447 2.392-.796 6.696-1.532 6.7-.736.003-2.123-1.819-1.889-9.4.235-7.58 1.031-14.764 6.35-21.237 5.318-6.472 21.963-22.656 27.162-25.264 5.2-2.608 11.055-5.012 14.446-5.573 3.39-.562.751 3.493.751 3.493zM700.481 548.887c-9.893 18.828-5.964 12.415-9.893 18.828-3.93 6.413-10.814 17.04-10.814 17.04h6.805s8.417-14.794 10.306-18.43c1.889-3.636 3.684-8.667 3.908-11.374.224-2.707-.312-6.064-.312-6.064zm-400.962 0c9.893 18.828 5.964 12.415 9.893 18.828 3.93 6.413 10.814 17.04 10.814 17.04h-6.805s-8.417-14.794-10.306-18.43c-1.889-3.636-3.684-8.667-3.908-11.374-.224-2.707.312-6.064.312-6.064z"/><path style="opacity:1;fill:#822b01;fill-opacity:1;stroke:#000;stroke-width:5.291;stroke-dasharray:none;stroke-opacity:1;paint-order:fill markers stroke" d="M572.652 483.436s1.1 19.944-12.666 19.944c-13.765 0-10.565-4.924-10.565-4.924m-122.073-15.02s-1.1 19.944 12.666 19.944c13.765 0 10.565-4.924 10.565-4.924"/><path style="opacity:1;fill:none;fill-opacity:1;stroke:#000;stroke-width:5.291;stroke-dasharray:none;stroke-opacity:1;paint-order:fill markers stroke" d="M559.986 503.38 558 559.062c3.627 0 4.32 3.034 4.12 4.065-.202 1.03-1.19 4.107-4.108 4.107-2.919 0-5.18-1.03-5.18-2.717 0-4.622 2.435-5.455 5.168-5.455M440.014 503.38 442 559.062c-3.627 0-4.32 3.034-4.12 4.065.202 1.03 1.19 4.107 4.108 4.107 2.919 0 5.18-1.03 5.18-2.717 0-4.622-2.435-5.455-5.168-5.455"/></g></g><g style="display:inline"><path style="display:inline;opacity:1;fill:#686868;fill-opacity:1;stroke:none;stroke-width:2.22961;stroke-linecap:square;stroke-linejoin:bevel;stroke-dasharray:none;stroke-opacity:1" d="M507.549 585.325s4.733-4.82 8.505-14.292c2.828-7.104 3.38-7.21 4.263-9.772.294-.854.625-1.98 1.09-3.73.464-1.75 1.154-4.725 1.996-8.355 1.684-7.259 3.975-17.135 6.278-25.057 1.15-3.96 2.304-7.432 3.387-9.844 4.877-10.867 15.194-25.5 24.988-36.403 6.981-7.771 10.453-10.663 16.16-14.812-1.714-16.675 5.296-30.777 6.41-35.166 1.429-5.64 4.534-8.006 7.883-12.997 3.367-5.015 7.052-10.996 13.12-16.456 4.25-3.825 6.4-7.328 8.202-10.878 1.802-3.55 3.256-7.146 3.432-10.424.418-7.787-2.391-16.478-2.281-24.679.11-8.2 3.14-15.911-1.983-22.503-10.88-12.106-20.592-21.772-32.456-29.96h-.002c-15.704-8.976-30.71-17.425-46.956-21.806h-.002c-1.835-.473-3.604-.882-5.388-1.131h-.002l-.057-.006c-15.317-1.439-10.798-2.98-24.136-2.98v311.221c1.81 0 5.724-.028 7.549.03zm-15.098 0s-4.733-4.82-8.505-14.292c-2.828-7.104-3.38-7.21-4.263-9.772-.294-.854-.625-1.98-1.09-3.73-.464-1.75-1.154-4.725-1.996-8.355-1.684-7.259-3.975-17.135-6.278-25.057-1.15-3.96-2.304-7.432-3.387-9.844-4.877-10.867-15.194-25.5-24.988-36.403-6.981-7.771-10.453-10.663-16.16-14.812 1.714-16.675-5.296-30.777-6.41-35.166-1.429-5.64-4.534-8.006-7.883-12.997-3.367-5.015-7.052-10.996-13.12-16.456-4.25-3.825-6.4-7.328-8.202-10.878-1.802-3.55-3.256-7.146-3.432-10.424-.418-7.787 2.391-16.478 2.281-24.679-.11-8.2-3.14-15.911 1.983-22.503 10.88-12.106 20.592-21.772 32.456-29.96h.002c15.704-8.976 30.71-17.425 46.956-21.806h.002c1.835-.473 3.604-.882 5.388-1.131h.002l.057-.006c15.318-1.439 10.798-2.98 24.136-2.98v311.221c-1.81 0-5.724-.028-7.549.03z"/><path style="display:inline;opacity:1;fill:#fff;fill-opacity:1;stroke-width:15.7978;stroke-linecap:square;stroke-linejoin:bevel" d="M566.914 434.396v.002c-.812-.007-1.977.218-3.954.889-2.637.894-8.154 8.755-11.885 13.102-3.732 4.348-15.169 9.053-28.145 11.93-12.977 2.878-20.692 2.884-20.692 2.884s-.776.034-2.238-.029v122.121c3.177-.014 6.557-1.506 9.378-1.506l6.217-9.28 5.367-12.068 5.684-26.2 8.046-22.931 17.198-27.043 12.257-14.076s1.127 3.73.289-6.252c-.839-9.982 2.185-16.084 2.246-16.336.062-.251.256-.303 1.18-3.45.925-3.146 1.593-8.115 1.43-9.654-.164-1.54-.827-1.853-1.666-2.03a3.526 3.526 0 0 0-.712-.075zm-133.828 0v.002c.812-.007 1.977.218 3.954.889 2.637.894 8.154 8.755 11.885 13.102 3.732 4.348 15.169 9.053 28.145 11.93 12.977 2.878 20.692 2.884 20.692 2.884s.776.034 2.238-.029v122.121c-3.177-.014-6.557-1.506-9.378-1.506l-6.217-9.28-5.367-12.068-5.684-26.2-8.046-22.931-17.198-27.043-12.257-14.076s-1.127 3.73-.289-6.252c.839-9.982-2.185-16.084-2.246-16.336-.062-.251-.256-.303-1.18-3.45-.925-3.146-1.593-8.115-1.43-9.654.164-1.54.827-1.853 1.666-2.03.21-.044.441-.073.712-.075z"/><g style="display:inline"><path style="display:inline;opacity:1;fill:#e58065;fill-opacity:1;stroke:#000;stroke-width:2;stroke-linecap:butt;stroke-linejoin:bevel;stroke-dasharray:none;stroke-opacity:1" d="M157.365 161.888c.665 0 3.223-2.474 3.563-3.06 1.362-2.858.947-4.816 3.13-10.603s7.9-10.25 9.7-11.834c1.8-1.584 8.15-5.645 8.806-6.244.656-.598 1.565-1.528 1.602-3.643 0-1.963-2.301-3.062-4.48-3.082a6.698 6.698 0 0 0-.433.01c-2.294.133-3.943 2.978-6.282 6.982-2.34 4.004-4.968 5.964-7.659 6.022-2.691.058-3.879-3.294-3.879-3.294-1.371-.246-2.661-1.204-4.068-1.204m0 29.95c-.665 0-3.223-2.474-3.563-3.06-1.362-2.858-.946-4.816-3.13-10.603-2.183-5.787-7.9-10.25-9.7-11.834-1.8-1.584-8.15-5.645-8.806-6.244-.656-.598-1.565-1.528-1.602-3.643 0-1.963 2.302-3.062 4.48-3.082.145-.001.29.002.433.01 2.294.133 3.943 2.978 6.282 6.982 2.34 4.004 4.968 5.964 7.659 6.022 2.691.058 3.879-3.294 3.879-3.294 1.371-.246 2.661-1.204 4.068-1.204" transform="translate(-1.214 -2.52) scale(3.18504)"/><path style="display:inline;opacity:1;fill:#fbb39f;fill-opacity:1;stroke:#000;stroke-width:2;stroke-linecap:butt;stroke-linejoin:miter;stroke-dasharray:none;stroke-opacity:1" d="M157.365 163.652c.783 0 2.773-6.631 3.501-9.102.653-2.228-1.699-15.797-.48-18.762 1.218-2.965 2.394-6.737 2.416-8.204.022-1.467-.415-2.202-1.66-2.202-1.246 0-1.493 2.114-1.68 3.032-.343.966-1.244 1.74-2.097 1.74m0 33.498c-.783 0-2.773-6.631-3.501-9.102-.653-2.228 1.699-15.797.48-18.762-1.218-2.965-2.394-6.737-2.416-8.204-.022-1.467.415-2.202 1.66-2.202 1.246 0 1.493 2.114 1.68 3.032.343.966 1.244 1.74 2.097 1.74" transform="translate(-1.214 -2.52) scale(3.18504)"/></g><path style="display:inline;fill:none;fill-opacity:1;stroke:#000;stroke-width:6.08308;stroke-linecap:square;stroke-linejoin:bevel;stroke-dasharray:none;stroke-opacity:1" d="M500 587.211h7.147s4.63-4.977 8.321-14.758c3.69-9.782 3.42-6.715 5.238-13.943 1.817-7.228 6.79-27.577 11.026-37.542 4.772-11.22 16.741-31.838 26.324-43.096 13.662-16.05 20.057-20.509 26.154-27.294 6.763-7.527 17.845-9.725 25.225-23.02 7.38-13.296 12.249-28.494 13.813-44.515 1.564-16.02-5.113-43.661-14.25-53.086-11.556-11.921-22.147-22.137-38.332-33.303-16.748-11.555-35.675-18.93-47.616-20.644-8.119-1.185-16.77-1.894-23.05-1.9m0 313.101h-7.147s-4.63-4.977-8.321-14.758c-3.69-9.782-3.42-6.715-5.238-13.943-1.817-7.228-6.79-27.577-11.026-37.542-4.772-11.22-16.741-31.838-26.324-43.096-13.662-16.05-20.057-20.509-26.154-27.294-6.763-7.527-17.845-9.725-25.225-23.02-7.38-13.296-12.249-28.494-13.813-44.515-1.564-16.02 5.113-43.661 14.25-53.086 11.556-11.921 22.147-22.137 38.332-33.303 16.748-11.555 35.675-18.93 47.616-20.644 8.119-1.185 16.77-1.894 23.05-1.9"/><g style="display:inline"><path style="display:inline;fill:#fff;fill-opacity:1;stroke:#000;stroke-width:5.29134;paint-order:fill markers stroke" d="M524.463 387.398s8.842 7.625 15.514 7.625c6.672 0 21.984-6.053 22.656-22.938.673-16.885-7.084-21.575-14.233-20.861-2.178.218-6.346 1.549-6.346 1.549m-66.517 34.625s-8.842 7.625-15.514 7.625c-6.672 0-21.984-6.053-22.656-22.938-.673-16.885 7.084-21.575 14.233-20.861 2.178.218 6.346 1.549 6.346 1.549"/><path style="display:inline;fill:#000;fill-opacity:1;stroke:none;stroke-width:5.29134;paint-order:fill markers stroke" d="M536.761 365.95s2.187-.248 5.05.14c2.861.389 11.5 3.65 10.316 11.71-1.184 8.06-6.103 14.993-6.103 14.993l-6.524 2.073-6.91-2.782s2.909-3.025.771-7.229c-2.137-4.204-4.715-2.901-4.715-2.901l5.9-9.303zm-73.522 0s-2.187-.248-5.05.14c-2.861.389-11.5 3.65-10.316 11.71 1.184 8.06 6.103 14.993 6.103 14.993l6.524 2.073 6.91-2.782s-2.909-3.025-.771-7.229c2.137-4.204 4.715-2.901 4.715-2.901l-5.9-9.303z"/></g></g><g style="opacity:1;fill:#fbe09f;fill-opacity:1;stroke:#000;stroke-opacity:1"><path style="display:inline;opacity:1;fill:#fbe09f;fill-opacity:1;stroke:#000;stroke-width:5.29134;stroke-linecap:butt;stroke-linejoin:miter;stroke-dasharray:none;stroke-opacity:1;paint-order:fill markers stroke" d="M551.324 320.625s23.297-21.134 27.373-23.559c4.077-2.424 13.432-10.814 32.594-9.882 24.973 1.214 35.486 1.838 48.371 6.701 22.204 8.38 37.434 33.352 32.495 34.45-4.94 1.1-10.178-5.863-12.234-7.938-6.951-7.016-19.621-18.014-26.823-20.826-7.202-2.812-22.634-9.158-40.419-9.542-9.718-.007-20.034.002-32.573 7.531-12.54 7.53-28.784 23.065-28.784 23.065zm-102.648 0s-23.297-21.134-27.373-23.559c-4.077-2.424-13.432-10.814-32.594-9.882-24.973 1.214-35.486 1.838-48.371 6.701-22.204 8.38-37.434 33.352-32.495 34.45 4.94 1.1 10.178-5.863 12.234-7.938 6.951-7.016 19.621-18.014 26.823-20.826 7.202-2.812 22.634-9.158 40.419-9.542 9.718-.007 20.034.002 32.573 7.531 12.54 7.53 28.784 23.065 28.784 23.065z"/><path style="display:inline;opacity:1;fill:#fbe09f;fill-opacity:1;stroke:#000;stroke-width:5.29134;stroke-linecap:butt;stroke-linejoin:miter;stroke-dasharray:none;stroke-opacity:1;paint-order:fill markers stroke" d="M553.535 313.034c23.471-15.128 55.773-36.905 80.968-41.429 25.195-4.524 35.852-5.18 53.178-.31s32.82 13.033 42.157 21.467c9.338 8.434 13.923 17.459 14.189 18.767.266 1.308-7.7-2.039-17.96-9.7-10.26-7.663-21.888-13.536-31.113-16.963-9.224-3.426-33.554-8.465-47.085-9.894-13.531-1.43-24.472.71-40.511 5.797-19.215 5.793-37.465 21.053-53.823 32.265zm-107.07 0c-23.471-15.128-55.773-36.905-80.968-41.429-25.195-4.524-35.852-5.18-53.178-.31s-32.82 13.033-42.157 21.467c-9.338 8.434-13.923 17.459-14.189 18.767-.266 1.308 7.7-2.039 17.96-9.7 10.26-7.663 21.888-13.536 31.113-16.963 9.224-3.426 33.554-8.465 47.085-9.894 13.531-1.43 24.472.71 40.511 5.797 19.215 5.793 37.465 21.053 53.823 32.265z"/><path style="display:inline;opacity:1;fill:#fbe09f;fill-opacity:1;stroke:#000;stroke-width:5.29134;stroke-linecap:butt;stroke-linejoin:miter;stroke-dasharray:none;stroke-opacity:1;paint-order:fill markers stroke" d="M514.092 397.104s17.16-13.842 22.734-30.554c5.573-16.712 13.037-48.03 20.113-60.73 11.776-21.135 24.678-34.38 42.382-46.175 21.126-14.076 65.479-31.002 104.205-29.301 38.959 1.711 50.863 20.742 53.657 30.162 2.793 9.42-5.62-1.498-17.81-5.44-12.19-3.942-23.77-6.152-40.637-6.755-25.038 2.128-47.7 11.13-71.262 19.232-26.077 8.971-45.642 17.975-70.861 39.362 0 0-5.96 11.891-9.49 26.583-3.529 14.693-8.662 28.354-10.297 33.062-1.636 4.708-10.128 17.714-22.734 30.554zm-28.184 0s-17.16-13.842-22.734-30.554c-5.573-16.712-13.037-48.03-20.113-60.73-11.776-21.135-24.678-34.38-42.382-46.175-21.126-14.076-65.479-31.002-104.205-29.301-38.959 1.711-50.863 20.742-53.657 30.162-2.793 9.42 5.62-1.498 17.81-5.44 12.19-3.942 23.77-6.152 40.637-6.755 25.038 2.128 47.7 11.13 71.262 19.232 26.077 8.971 45.642 17.975 70.861 39.362 0 0 5.96 11.891 9.49 26.583 3.529 14.693 8.662 28.354 10.297 33.062 1.636 4.708 10.128 17.714 22.734 30.554z"/></g><g><path style="display:inline;opacity:1;fill:#c8c8c8;fill-opacity:1;stroke:#000;stroke-width:5.29134;stroke-opacity:1;paint-order:fill markers stroke" d="M500 799.94h170.645l8.108-8.106 43.02-199.972-5.88-7.108H500m0 215.187H329.355l-8.108-8.107-43.02-199.972 5.88-7.108H500"/><g style="display:inline"><path style="display:inline;opacity:1;fill:#605c5d;fill-opacity:1;stroke:#000;stroke-width:5.291;stroke-dasharray:none;stroke-opacity:1;paint-order:fill markers stroke" d="M500 751.254h27.665l9.386-53.863-2.01-3.675-35.041-.225m0 57.763h-27.665l-9.386-53.863 2.01-3.675 35.041-.225"/><path style="display:inline;opacity:1;fill:#605c5d;fill-opacity:1;stroke:#000;stroke-width:5.29134;stroke-opacity:1;paint-order:fill markers stroke" d="M500 650.983c12.6 0 30.252 12.944 28.013 27.807l-2.239 14.867-12.025-.078s2.192-11.907.12-16.683c-2.07-4.777-7.057-11.805-13.869-11.805m0-14.108c-12.6 0-30.252 12.944-28.013 27.807l2.239 14.867 12.025-.078s-2.192-11.907-.12-16.683c2.07-4.777 7.057-11.805 13.869-11.805"/><path style="display:inline;opacity:1;fill:#000;fill-opacity:1;stroke:none;stroke-width:1.391;stroke-dasharray:none;stroke-opacity:1;paint-order:fill markers stroke" d="M500 742.085h8.796l-5.446-20.326s5.399-1.947 5.399-6.132c0-4.184-1.144-8.73-8.749-8.73m0 35.188h-8.796l5.446-20.326s-5.399-1.947-5.399-6.132c0-4.184 1.144-8.73 8.749-8.73"/></g></g></g></svg>