<svg xmlns="http://www.w3.org/2000/svg" id="svg5" width="569.63" height="623.257" version="1.1" viewBox="0 0 569.63 623.256" xml:space="preserve"><defs id="defs2"><path id="rect1879-6" d="M475.278 197.13h1021.089v234.272H475.278z"/><path id="rect1879-6-5" d="M475.278 197.13h1021.089v234.272H475.278z"/><path id="rect1879-6-5-5" d="M475.278 197.13h1021.089v234.272H475.278z"/><path id="rect1879-6-5-5-2" d="M475.278 197.13h1021.089v234.272H475.278z"/><path id="rect1879-6-5-5-2-1" d="M475.278 197.13h1091.959v225.1H475.278z"/><path id="rect1879-6-5-5-2-1-7" d="M475.278 197.13h1021.089v234.272H475.278z"/><path id="rect1879-6-5-5-2-1-7-9" d="M475.278 197.13h1021.089v234.272H475.278z"/><path id="rect1879-6-5-5-2-1-7-9-6" d="M475.278 197.13h1021.089v234.272H475.278z"/></defs><g id="layer11" class="UnoptimicedTransforms" style="display:inline" transform="translate(-215.185 -179.33)"><g id="layer10"><g id="layer6" style="display:inline"><path id="path5010" style="display:inline;opacity:1;fill:#cb490b;fill-opacity:1;stroke:#000;stroke-width:5.9886;stroke-linecap:butt;stroke-linejoin:bevel;stroke-dasharray:none;stroke-opacity:1" d="m500 791.83 182.227-.108s23.613.75 35.487-2.24c11.874-2.99 29.517-11.655 34.997-16.802 5.48-5.148 10.876-10.057 13.088-15.883 2.212-5.825 15.609-73.988 15.898-79.426.29-5.437-.028-25.826-.408-31.729-.382-5.902-6.967-43.66-10.768-55.287-3.801-11.628-9.14-30.297-19.49-50.115-10.35-19.818-30.139-45.83-49.423-68.06-19.284-22.231-37.874-40.658-37.874-40.658l-82.51-1.482-1.198-4.292-80.026 1.35m0 364.733-182.227-.11s-23.613.75-35.487-2.239c-11.874-2.99-29.517-11.655-34.997-16.802-5.48-5.148-10.876-10.057-13.088-15.883-2.212-5.825-15.609-73.988-15.898-79.426-.29-5.437.028-25.826.408-31.729.382-5.902 6.967-43.66 10.768-55.287 3.801-11.628 9.14-30.297 19.49-50.115 10.35-19.818 30.139-45.83 49.423-68.06 19.284-22.231 37.874-40.658 37.874-40.658l82.51-1.482 1.198-4.292 80.026 1.35"/><path id="path5230" style="display:inline;opacity:1;fill:#cb490b;fill-opacity:1;stroke:#000;stroke-width:5.9878;stroke-linecap:butt;stroke-linejoin:bevel;stroke-dasharray:none;stroke-opacity:1" d="M500 584.098c10.927 0 13.586-11.228 15.287-15.287 1.7-4.059 2.888-6.552 4.81-13.283 6.09-21.322 8.738-32.573 15.04-40.928 6.301-8.355 16.85-23.205 29.822-29.685 12.971-6.48 37.849-12.237 47.682-13.678 9.834-1.442 16.909-1.764 27.878-7.835 10.97-6.071 18.337-11.97 22.032-17.082 3.694-5.112 14.311-22.062 15.245-46.786.933-24.723-.93-42.422-6.184-56.687-5.253-14.265-20.222-65.051-54.854-95.748-34.63-30.697-63.777-50.229-82.933-56.751-11.82-3.958-18.722-7.983-33.825-8.024m0 401.774c-10.927 0-13.586-11.228-15.287-15.287-1.701-4.059-2.888-6.552-4.81-13.283-6.09-21.322-8.738-32.573-15.04-40.928-6.301-8.355-16.85-23.205-29.822-29.685-12.971-6.48-37.849-12.237-47.682-13.678-9.834-1.442-16.909-1.764-27.878-7.835-10.97-6.071-18.337-11.97-22.032-17.082-3.694-5.112-14.311-22.062-15.245-46.786-.933-24.723.93-42.422 6.184-56.687 5.253-14.265 20.222-65.051 54.854-95.748 34.63-30.697 63.777-50.229 82.933-56.751 11.82-3.958 18.722-7.983 33.825-8.024"/><path id="path5230-3" style="display:inline;fill:#822b01;fill-opacity:1;stroke:#000;stroke-width:6.02438;stroke-linecap:square;stroke-linejoin:bevel;stroke-dasharray:none;stroke-opacity:1" d="m500 587.211 7.214-.024s4.653-4.857 8.362-14.404c3.708-9.547 3.436-6.554 5.262-13.609 1.826-7.054 7.426-33.417 13.688-41.928 6.263-8.51 16.213-23.336 29.103-29.937 12.89-6.6 37.612-12.465 47.384-13.933 9.772-1.469 16.51-3.672 27.41-9.856 10.9-6.184 16.076-18.396 15.206-31.07-.87-12.674-2.837-21.097-6.04-30.593-3.501-10.379-14.568-37.226-23.704-52.197-8.337-13.662-27.283-31.813-42.821-45.2-15.495-13.351-45.485-26.293-57.484-27.965-8.52-.992-14.967-2.385-23.58-2.385m0 313.101-7.214-.024s-4.653-4.857-8.362-14.404c-3.708-9.547-3.436-6.554-5.262-13.609-1.826-7.054-7.426-33.417-13.688-41.928-6.263-8.51-16.213-23.336-29.103-29.937-12.89-6.6-37.612-12.465-47.384-13.933-9.772-1.469-16.51-3.672-27.41-9.856-10.9-6.184-16.076-18.396-15.206-31.07.87-12.674 2.837-21.097 6.04-30.593 3.501-10.379 14.568-37.226 23.704-52.197 8.337-13.662 27.283-31.813 42.821-45.2 15.495-13.351 45.485-26.293 57.484-27.965 8.52-.992 14.967-2.385 23.58-2.385"/><path id="path5230-3-7" style="display:inline;fill:#000;fill-opacity:1;stroke:#000;stroke-width:5.92121;stroke-linecap:square;stroke-linejoin:bevel;stroke-dasharray:none;stroke-opacity:1" d="M500.383 275.39c-.126 0-.256.004-.383.004v303.41h7.147s4.63-4.716 8.321-13.984c3.69-9.268 3.42-6.362 5.238-13.21 1.817-6.849 7.172-32.882 11.41-42.323 4.771-10.632 14.866-24.95 24.448-35.617 13.662-15.208 26.115-20.628 32.212-27.057 6.763-7.132 13.662-13.235 21.043-25.832 7.38-12.598 9.274-26.356 10.838-41.535 1.564-15.18-4.225-37.4-14.25-50.3-9.62-12.38-9.881-11.49-25.343-24.487-15.419-12.96-45.69-25.645-57.63-27.268-11.941-1.623-15.558-1.802-23.05-1.802zm-.766 0c.126 0 .256.004.383.004v303.41h-7.147s-4.63-4.716-8.321-13.984c-3.69-9.268-3.42-6.362-5.238-13.21-1.817-6.849-7.172-32.882-11.41-42.323-4.771-10.632-14.866-24.95-24.448-35.617-13.662-15.208-26.115-20.628-32.212-27.057-6.763-7.132-13.662-13.235-21.043-25.832-7.38-12.598-9.274-26.356-10.838-41.535-1.564-15.18 4.225-37.4 14.25-50.3 9.62-12.38 9.881-11.49 25.343-24.487 15.419-12.96 45.69-25.645 57.63-27.268 11.941-1.623 15.558-1.802 23.05-1.802z"/><g id="layer13" style="display:inline"><path style="display:inline;opacity:1;fill:#000;fill-opacity:1;stroke:none;stroke-width:5.291;stroke-dasharray:none;stroke-opacity:1;paint-order:fill markers stroke" id="path4634" d="M708.67 652.764s13.246 5.389 22.027 15.29c8.78 9.9 10.883 24.107 11.357 27.948.237 1.921 1.118 8.808 1.223 16.068.106 7.26-.565 14.893-.14 15.364.851.943 1.86.649 2.252-.032.393-.68 3.127-4.383 3.468-12.58.34-8.198.266-13.918-1.102-20.427-1.367-6.509-3.1-11.356-3.196-12.069-.095-.712-.074-1.52.83-.952.905.57 5.029 7.381 5.98 10.974.95 3.592 2.143 9.304 2.59 11.697.447 2.392.796 6.696 1.532 6.7.736.003 2.123-1.819 1.889-9.4-.235-7.58-1.031-14.764-6.35-21.237-5.318-6.472-21.963-22.656-27.162-25.264-5.2-2.608-11.055-5.012-14.446-5.573-3.39-.562-.751 3.493-.751 3.493zm-417.34 0s-13.246 5.389-22.027 15.29c-8.78 9.9-10.883 24.107-11.357 27.948-.237 1.921-1.118 8.808-1.223 16.068-.106 7.26.565 14.893.14 15.364-.851.943-1.86.649-2.252-.032-.393-.68-3.127-4.383-3.468-12.58-.34-8.198-.266-13.918 1.102-20.427 1.367-6.509 3.1-11.356 3.196-12.069.095-.712.074-1.52-.83-.952-.905.57-5.029 7.381-5.98 10.974-.95 3.592-2.143 9.304-2.59 11.697-.447 2.392-.796 6.696-1.532 6.7-.736.003-2.123-1.819-1.889-9.4.235-7.58 1.031-14.764 6.35-21.237 5.318-6.472 21.963-22.656 27.162-25.264 5.2-2.608 11.055-5.012 14.446-5.573 3.39-.562.751 3.493.751 3.493z"/><path style="display:inline;opacity:1;fill:#000;fill-opacity:1;stroke:none;stroke-width:5.291;stroke-dasharray:none;stroke-opacity:1;paint-order:fill markers stroke" id="path4852" d="M700.481 548.887c-9.893 18.828-5.964 12.415-9.893 18.828-3.93 6.413-10.814 17.04-10.814 17.04h6.805s8.417-14.794 10.306-18.43c1.889-3.636 3.684-8.667 3.908-11.374.224-2.707-.312-6.064-.312-6.064zm-400.962 0c9.893 18.828 5.964 12.415 9.893 18.828 3.93 6.413 10.814 17.04 10.814 17.04h-6.805s-8.417-14.794-10.306-18.43c-1.889-3.636-3.684-8.667-3.908-11.374-.224-2.707.312-6.064.312-6.064z"/><path style="opacity:1;fill:#822b01;fill-opacity:1;stroke:#000;stroke-width:5.291;stroke-dasharray:none;stroke-opacity:1;paint-order:fill markers stroke" id="path5725" d="M572.652 483.436s1.1 19.944-12.666 19.944c-13.765 0-10.565-4.924-10.565-4.924m-122.073-15.02s-1.1 19.944 12.666 19.944c13.765 0 10.565-4.924 10.565-4.924"/><path style="opacity:1;fill:none;fill-opacity:1;stroke:#000;stroke-width:5.291;stroke-dasharray:none;stroke-opacity:1;paint-order:fill markers stroke" id="path5889" d="M559.986 503.38 558 559.062c3.627 0 4.32 3.034 4.12 4.065-.202 1.03-1.19 4.107-4.108 4.107-2.919 0-5.18-1.03-5.18-2.717 0-4.622 2.435-5.455 5.168-5.455M440.014 503.38 442 559.062c-3.627 0-4.32 3.034-4.12 4.065.202 1.03 1.19 4.107 4.108 4.107 2.919 0 5.18-1.03 5.18-2.717 0-4.622-2.435-5.455-5.168-5.455"/></g></g><g id="layer7" style="display:inline"><path id="path5230-3-7-3" style="display:inline;opacity:1;fill:#686868;fill-opacity:1;stroke:none;stroke-width:2.22961;stroke-linecap:square;stroke-linejoin:bevel;stroke-dasharray:none;stroke-opacity:1" d="M507.549 585.325s4.733-4.82 8.505-14.292c2.828-7.104 3.38-7.21 4.263-9.772.294-.854.625-1.98 1.09-3.73.464-1.75 1.154-4.725 1.996-8.355 1.684-7.259 3.975-17.135 6.278-25.057 1.15-3.96 2.304-7.432 3.387-9.844 4.877-10.867 15.194-25.5 24.988-36.403 6.981-7.771 10.453-10.663 16.16-14.812-1.714-16.675 5.296-30.777 6.41-35.166 1.429-5.64 4.534-8.006 7.883-12.997 3.367-5.015 7.052-10.996 13.12-16.456 4.25-3.825 6.4-7.328 8.202-10.878 1.802-3.55 3.256-7.146 3.432-10.424.418-7.787-2.391-16.478-2.281-24.679.11-8.2 3.14-15.911-1.983-22.503-10.88-12.106-20.592-21.772-32.456-29.96h-.002c-15.704-8.976-30.71-17.425-46.956-21.806h-.002c-1.835-.473-3.604-.882-5.388-1.131h-.002l-.057-.006c-15.317-1.439-10.798-2.98-24.136-2.98v311.221c1.81 0 5.724-.028 7.549.03zm-15.098 0s-4.733-4.82-8.505-14.292c-2.828-7.104-3.38-7.21-4.263-9.772-.294-.854-.625-1.98-1.09-3.73-.464-1.75-1.154-4.725-1.996-8.355-1.684-7.259-3.975-17.135-6.278-25.057-1.15-3.96-2.304-7.432-3.387-9.844-4.877-10.867-15.194-25.5-24.988-36.403-6.981-7.771-10.453-10.663-16.16-14.812 1.714-16.675-5.296-30.777-6.41-35.166-1.429-5.64-4.534-8.006-7.883-12.997-3.367-5.015-7.052-10.996-13.12-16.456-4.25-3.825-6.4-7.328-8.202-10.878-1.802-3.55-3.256-7.146-3.432-10.424-.418-7.787 2.391-16.478 2.281-24.679-.11-8.2-3.14-15.911 1.983-22.503 10.88-12.106 20.592-21.772 32.456-29.96h.002c15.704-8.976 30.71-17.425 46.956-21.806h.002c1.835-.473 3.604-.882 5.388-1.131h.002l.057-.006c15.318-1.439 10.798-2.98 24.136-2.98v311.221c-1.81 0-5.724-.028-7.549.03z"/><path id="path3471" style="display:inline;opacity:1;fill:#fff;fill-opacity:1;stroke-width:15.7978;stroke-linecap:square;stroke-linejoin:bevel" d="M566.914 434.396v.002c-.812-.007-1.977.218-3.954.889-2.637.894-8.154 8.755-11.885 13.102-3.732 4.348-15.169 9.053-28.145 11.93-12.977 2.878-20.692 2.884-20.692 2.884s-.776.034-2.238-.029v122.121c3.177-.014 6.557-1.506 9.378-1.506l6.217-9.28 5.367-12.068 5.684-26.2 8.046-22.931 17.198-27.043 12.257-14.076s1.127 3.73.289-6.252c-.839-9.982 2.185-16.084 2.246-16.336.062-.251.256-.303 1.18-3.45.925-3.146 1.593-8.115 1.43-9.654-.164-1.54-.827-1.853-1.666-2.03a3.526 3.526 0 0 0-.712-.075zm-133.828 0v.002c.812-.007 1.977.218 3.954.889 2.637.894 8.154 8.755 11.885 13.102 3.732 4.348 15.169 9.053 28.145 11.93 12.977 2.878 20.692 2.884 20.692 2.884s.776.034 2.238-.029v122.121c-3.177-.014-6.557-1.506-9.378-1.506l-6.217-9.28-5.367-12.068-5.684-26.2-8.046-22.931-17.198-27.043-12.257-14.076s-1.127 3.73-.289-6.252c.839-9.982-2.185-16.084-2.246-16.336-.062-.251-.256-.303-1.18-3.45-.925-3.146-1.593-8.115-1.43-9.654.164-1.54.827-1.853 1.666-2.03.21-.044.441-.073.712-.075z"/><g id="layer8" style="display:inline" transform="matrix(3.18504 0 0 3.18504 -1.214 -2.52)"><path id="path1085" style="display:inline;opacity:1;fill:#e58065;fill-opacity:1;stroke:#000;stroke-width:2;stroke-linecap:butt;stroke-linejoin:bevel;stroke-dasharray:none;stroke-opacity:1" d="M157.365 161.888c.665 0 3.223-2.474 3.563-3.06 1.362-2.858.947-4.816 3.13-10.603s7.9-10.25 9.7-11.834c1.8-1.584 8.15-5.645 8.806-6.244.656-.598 1.565-1.528 1.602-3.643 0-1.963-2.301-3.062-4.48-3.082a6.698 6.698 0 0 0-.433.01c-2.294.133-3.943 2.978-6.282 6.982-2.34 4.004-4.968 5.964-7.659 6.022-2.691.058-3.879-3.294-3.879-3.294-1.371-.246-2.661-1.204-4.068-1.204m0 29.95c-.665 0-3.223-2.474-3.563-3.06-1.362-2.858-.946-4.816-3.13-10.603-2.183-5.787-7.9-10.25-9.7-11.834-1.8-1.584-8.15-5.645-8.806-6.244-.656-.598-1.565-1.528-1.602-3.643 0-1.963 2.302-3.062 4.48-3.082.145-.001.29.002.433.01 2.294.133 3.943 2.978 6.282 6.982 2.34 4.004 4.968 5.964 7.659 6.022 2.691.058 3.879-3.294 3.879-3.294 1.371-.246 2.661-1.204 4.068-1.204"/><path id="path1618" style="display:inline;opacity:1;fill:#fbb39f;fill-opacity:1;stroke:#000;stroke-width:2;stroke-linecap:butt;stroke-linejoin:miter;stroke-dasharray:none;stroke-opacity:1" d="M157.365 163.652c.783 0 2.773-6.631 3.501-9.102.653-2.228-1.699-15.797-.48-18.762 1.218-2.965 2.394-6.737 2.416-8.204.022-1.467-.415-2.202-1.66-2.202-1.246 0-1.493 2.114-1.68 3.032-.343.966-1.244 1.74-2.097 1.74m0 33.498c-.783 0-2.773-6.631-3.501-9.102-.653-2.228 1.699-15.797.48-18.762-1.218-2.965-2.394-6.737-2.416-8.204-.022-1.467.415-2.202 1.66-2.202 1.246 0 1.493 2.114 1.68 3.032.343.966 1.244 1.74 2.097 1.74"/></g><path id="path5230-3-7-6" style="display:inline;fill:none;fill-opacity:1;stroke:#000;stroke-width:6.08308;stroke-linecap:square;stroke-linejoin:bevel;stroke-dasharray:none;stroke-opacity:1" d="M500 587.211h7.147s4.63-4.977 8.321-14.758c3.69-9.782 3.42-6.715 5.238-13.943 1.817-7.228 6.79-27.577 11.026-37.542 4.772-11.22 16.741-31.838 26.324-43.096 13.662-16.05 20.057-20.509 26.154-27.294 6.763-7.527 17.845-9.725 25.225-23.02 7.38-13.296 12.249-28.494 13.813-44.515 1.564-16.02-5.113-43.661-14.25-53.086-11.556-11.921-22.147-22.137-38.332-33.303-16.748-11.555-35.675-18.93-47.616-20.644-8.119-1.185-16.77-1.894-23.05-1.9m0 313.101h-7.147s-4.63-4.977-8.321-14.758c-3.69-9.782-3.42-6.715-5.238-13.943-1.817-7.228-6.79-27.577-11.026-37.542-4.772-11.22-16.741-31.838-26.324-43.096-13.662-16.05-20.057-20.509-26.154-27.294-6.763-7.527-17.845-9.725-25.225-23.02-7.38-13.296-12.249-28.494-13.813-44.515-1.564-16.02 5.113-43.661 14.25-53.086 11.556-11.921 22.147-22.137 38.332-33.303 16.748-11.555 35.675-18.93 47.616-20.644 8.119-1.185 16.77-1.894 23.05-1.9"/><g id="layer3" style="display:inline"><path style="display:inline;fill:#fff;fill-opacity:1;stroke:#000;stroke-width:5.29134;paint-order:fill markers stroke" id="path403" d="M524.463 387.398s8.842 7.625 15.514 7.625c6.672 0 21.984-6.053 22.656-22.938.673-16.885-7.084-21.575-14.233-20.861-2.178.218-6.346 1.549-6.346 1.549m-66.517 34.625s-8.842 7.625-15.514 7.625c-6.672 0-21.984-6.053-22.656-22.938-.673-16.885 7.084-21.575 14.233-20.861 2.178.218 6.346 1.549 6.346 1.549"/><path style="display:inline;fill:#000;fill-opacity:1;stroke:none;stroke-width:5.29134;paint-order:fill markers stroke" id="path1163" d="M536.761 365.95s2.187-.248 5.05.14c2.861.389 11.5 3.65 10.316 11.71-1.184 8.06-6.103 14.993-6.103 14.993l-6.524 2.073-6.91-2.782s2.909-3.025.771-7.229c-2.137-4.204-4.715-2.901-4.715-2.901l5.9-9.303zm-73.522 0s-2.187-.248-5.05.14c-2.861.389-11.5 3.65-10.316 11.71 1.184 8.06 6.103 14.993 6.103 14.993l6.524 2.073 6.91-2.782s-2.909-3.025-.771-7.229c2.137-4.204 4.715-2.901 4.715-2.901l-5.9-9.303z"/></g></g><g id="layer12" style="opacity:1;fill:#fbe09f;fill-opacity:1;stroke:#000;stroke-opacity:1"><path style="display:inline;opacity:1;fill:#fbe09f;fill-opacity:1;stroke:#000;stroke-width:5.29134;stroke-linecap:butt;stroke-linejoin:miter;stroke-dasharray:none;stroke-opacity:1;paint-order:fill markers stroke" id="path8836" d="M551.324 320.625s23.297-21.134 27.373-23.559c4.077-2.424 13.432-10.814 32.594-9.882 24.973 1.214 35.486 1.838 48.371 6.701 22.204 8.38 37.434 33.352 32.495 34.45-4.94 1.1-10.178-5.863-12.234-7.938-6.951-7.016-19.621-18.014-26.823-20.826-7.202-2.812-22.634-9.158-40.419-9.542-9.718-.007-20.034.002-32.573 7.531-12.54 7.53-28.784 23.065-28.784 23.065zm-102.648 0s-23.297-21.134-27.373-23.559c-4.077-2.424-13.432-10.814-32.594-9.882-24.973 1.214-35.486 1.838-48.371 6.701-22.204 8.38-37.434 33.352-32.495 34.45 4.94 1.1 10.178-5.863 12.234-7.938 6.951-7.016 19.621-18.014 26.823-20.826 7.202-2.812 22.634-9.158 40.419-9.542 9.718-.007 20.034.002 32.573 7.531 12.54 7.53 28.784 23.065 28.784 23.065z"/><path style="display:inline;opacity:1;fill:#fbe09f;fill-opacity:1;stroke:#000;stroke-width:5.29134;stroke-linecap:butt;stroke-linejoin:miter;stroke-dasharray:none;stroke-opacity:1;paint-order:fill markers stroke" id="path8834" d="M553.535 313.034c23.471-15.128 55.773-36.905 80.968-41.429 25.195-4.524 35.852-5.18 53.178-.31s32.82 13.033 42.157 21.467c9.338 8.434 13.923 17.459 14.189 18.767.266 1.308-7.7-2.039-17.96-9.7-10.26-7.663-21.888-13.536-31.113-16.963-9.224-3.426-33.554-8.465-47.085-9.894-13.531-1.43-24.472.71-40.511 5.797-19.215 5.793-37.465 21.053-53.823 32.265zm-107.07 0c-23.471-15.128-55.773-36.905-80.968-41.429-25.195-4.524-35.852-5.18-53.178-.31s-32.82 13.033-42.157 21.467c-9.338 8.434-13.923 17.459-14.189 18.767-.266 1.308 7.7-2.039 17.96-9.7 10.26-7.663 21.888-13.536 31.113-16.963 9.224-3.426 33.554-8.465 47.085-9.894 13.531-1.43 24.472.71 40.511 5.797 19.215 5.793 37.465 21.053 53.823 32.265z"/><path style="display:inline;opacity:1;fill:#fbe09f;fill-opacity:1;stroke:#000;stroke-width:5.29134;stroke-linecap:butt;stroke-linejoin:miter;stroke-dasharray:none;stroke-opacity:1;paint-order:fill markers stroke" id="path8672" d="M514.092 397.104s17.16-13.842 22.734-30.554c5.573-16.712 13.037-48.03 20.113-60.73 11.776-21.135 24.678-34.38 42.382-46.175 21.126-14.076 65.479-31.002 104.205-29.301 38.959 1.711 50.863 20.742 53.657 30.162 2.793 9.42-5.62-1.498-17.81-5.44-12.19-3.942-23.77-6.152-40.637-6.755-25.038 2.128-47.7 11.13-71.262 19.232-26.077 8.971-45.642 17.975-70.861 39.362 0 0-5.96 11.891-9.49 26.583-3.529 14.693-8.662 28.354-10.297 33.062-1.636 4.708-10.128 17.714-22.734 30.554zm-28.184 0s-17.16-13.842-22.734-30.554c-5.573-16.712-13.037-48.03-20.113-60.73-11.776-21.135-24.678-34.38-42.382-46.175-21.126-14.076-65.479-31.002-104.205-29.301-38.959 1.711-50.863 20.742-53.657 30.162-2.793 9.42 5.62-1.498 17.81-5.44 12.19-3.942 23.77-6.152 40.637-6.755 25.038 2.128 47.7 11.13 71.262 19.232 26.077 8.971 45.642 17.975 70.861 39.362 0 0 5.96 11.891 9.49 26.583 3.529 14.693 8.662 28.354 10.297 33.062 1.636 4.708 10.128 17.714 22.734 30.554z"/></g></g><g id="layer5"><path style="display:inline;opacity:1;fill:#c8c8c8;fill-opacity:1;stroke:#000;stroke-width:5.29134;stroke-opacity:1;paint-order:fill markers stroke" id="path3111" d="M500 799.94h170.645l8.108-8.106 43.02-199.972-5.88-7.108H500m0 215.187H329.355l-8.108-8.107-43.02-199.972 5.88-7.108H500"/><g id="layer4" style="display:inline"><path style="display:inline;opacity:1;fill:#605c5d;fill-opacity:1;stroke:#000;stroke-width:5.291;stroke-dasharray:none;stroke-opacity:1;paint-order:fill markers stroke" id="path3113" d="M500 751.254h27.665l9.386-53.863-2.01-3.675-35.041-.225m0 57.763h-27.665l-9.386-53.863 2.01-3.675 35.041-.225"/><path style="display:inline;opacity:1;fill:#605c5d;fill-opacity:1;stroke:#000;stroke-width:5.29134;stroke-opacity:1;paint-order:fill markers stroke" id="path3115" d="M500 650.983c12.6 0 30.252 12.944 28.013 27.807l-2.239 14.867-12.025-.078s2.192-11.907.12-16.683c-2.07-4.777-7.057-11.805-13.869-11.805m0-14.108c-12.6 0-30.252 12.944-28.013 27.807l2.239 14.867 12.025-.078s-2.192-11.907-.12-16.683c2.07-4.777 7.057-11.805 13.869-11.805"/><path style="display:inline;opacity:1;fill:#000;fill-opacity:1;stroke:none;stroke-width:1.391;stroke-dasharray:none;stroke-opacity:1;paint-order:fill markers stroke" id="path3117" d="M500 742.085h8.796l-5.446-20.326s5.399-1.947 5.399-6.132c0-4.184-1.144-8.73-8.749-8.73m0 35.188h-8.796l5.446-20.326s-5.399-1.947-5.399-6.132c0-4.184 1.144-8.73 8.749-8.73"/></g></g></g><style id="style1057" type="text/css"/></svg>